<?xml version="1.0" encoding="UTF-8"?>
<svg id="home-icon" xmlns="http://www.w3.org/2000/svg" viewBox="0 0 24 24">
  <path id="trait" d="M7.29,17.2l9.23-.04c1.08.14.99,1.53-.02,1.68-2.79-.22-6.11.33-8.83.01-1.07-.12-1.29-1.12-.39-1.66Z" fill="currentColor"/>
  <path id="maison" d="M21.77,9.74v11.01c0,.08-.38.92-.47,1.07-.7,1.16-1.82,1.45-3.1,1.53-3.46.22-9.36.3-12.75-.02-1.1-.1-2.12-.5-2.73-1.48-.11-.18-.44-.96-.44-1.1v-11.01c-.68.2-.99,1-1.82.63-.96-.43-.19-1.24.28-1.68C3.65,5.91,7.68,3.58,10.7.84c.8-.5,1.84-.5,2.64,0,2.94,2.8,7.42,5.21,10.18,8.05.52.53.69.91.06,1.48-.86.38-1.16-.4-1.82-.63ZM20.06,8.22c-2.33-1.63-4.43-3.59-6.72-5.27-.6-.44-1.2-1.15-1.94-.57l-7.3,5.74-.15.41c.28,3.75-.34,7.96,0,11.66.09.93.69,1.44,1.61,1.47,4.15-.3,8.82.38,12.91,0,.85-.08,1.48-.45,1.61-1.33l-.03-12.1Z" fill="currentColor"/>
</svg>