<?xml version="1.0" encoding="UTF-8"?><svg id="a" xmlns="http://www.w3.org/2000/svg" viewBox="0 0 24 24"><g id="b"><path fill="currentColor" d="M23.78,12.2c-.46,2.13-2.41,3.77-4.63,3.89-.61.03-1.55.05-2.16,0-.78-.07-1.34-.67-1.34-1.42,0-.74.56-1.35,1.31-1.42.49-.05.92-.03,1.31-.02.84.03,1.34.04,1.97-.44.68-.51.95-1.31.73-2.14-.17-.66-.72-1.41-1.73-1.54-.04,0-.08,0-.13,0-.29,0-.73-.02-1.1-.31-.42-.33-.52-.81-.58-1.1,0-.04-.02-.09-.03-.12-.3-.91-1.2-1.48-2.23-1.39-.06,0-.12.03-.18.04-.12.03-.24.06-.35.08-.93.16-1.37-.46-1.53-.69-.02-.03-.04-.07-.07-.1-.38-.42-.9-.67-1.46-.69-.58-.02-1.12.18-1.55.58-.21.25-.58.7-1.31.68-.14,0-.29-.03-.45-.07l-.11-.02c-.98-.07-1.92.56-2.18,1.48-.01.04-.02.1-.03.16-.06.34-.13.8-.48,1.13-.3.28-.67.36-.98.42-.05.01-.1.02-.14.03-.72.23-1.23.84-1.36,1.62-.13.79.16,1.54.78,2,.16.12.33.2.56.3.15.07.31.14.47.23,1.81.96,1.78,2.46,1.76,3.45-.01.54-.02,1.01.19,1.42.3.59.88.96,1.56.98.66,0,1.26-.3,1.6-.86.29-.49.28-1.07.26-1.8,0-.31-.02-.63,0-.95l.04-.95h.95s.53,0,.78-.02l1.1-.06-.04,1.1c-.01.28,0,.55,0,.83.02.82.03,1.75-.34,2.67-.73,1.78-2.38,2.87-4.25,2.87-.26,0-.53-.02-.8-.07-2.19-.36-3.75-2.05-3.89-4.22-.02-.26,0-.54,0-.82.03-.62.02-.89-.12-.99-.19-.13-.38-.21-.57-.3-.38-.18-.81-.38-1.26-.78C.38,13.61-.18,11.8.25,10.01c.39-1.58,1.51-2.85,3.01-3.43.7-2.15,2.79-3.58,5.01-3.44.92-.78,2.11-1.2,3.34-1.16,1.23.04,2.4.53,3.29,1.37,2.14-.22,4.16.94,5.04,2.95,0,.02.02.04.03.06,1.17.25,2.21.91,2.94,1.88.85,1.14,1.17,2.58.87,3.96Z"/></g></svg>