<?xml version="1.0" encoding="UTF-8"?><svg id="a" xmlns="http://www.w3.org/2000/svg" viewBox="0 0 24 24"><g id="b"><path fill="currentColor" id="c" d="M.28,11.5c.19-3.42,3.16-6.49,6.6-6.68,1.87-.1,3.83.07,5.72,0,.34-1.18,1.69-1.81,2.74-1.03.23.17.66.76.66,1.05v1.38h6.4c1.18.15,1.73,1.58.98,2.52-.16.2-.74.54-.98.54h-6.4v5.47s.06-.05.08-.05h6.22c1.18,0,1.88,1.6,1.08,2.53-.17.19-.68.53-.93.53h-6.45v1.43c0,.1-.23.54-.31.64-.62.86-1.91.95-2.63.17-.21-.23-.29-.52-.45-.78-1.71-.07-3.46.07-5.16,0-1.32-.06-2.61-.38-3.73-1.09-1.96-1.22-3.25-3.33-3.42-5.64M9.91,11.59c-.13-.97-1.03-1.85-1.98-2.03-2.27-.43-3.9,2.2-2.45,4,1.61,2,4.78.6,4.43-1.97Z"/></g></svg>