<?xml version="1.0" encoding="UTF-8"?>
<svg id="Metro" xmlns="http://www.w3.org/2000/svg" viewBox="0 0 24 24">
  <path id="color-metro" d="M4.77,23.27l-.06-1.22c-1.07.11-2-.68-1.88-1.79L8.3,1.35c.19-.28.48-.53.84-.57,1.65.11,3.5-.15,5.13,0,.59.05.92.38,1.08.93l2,7.05c.06.06.73-1.11.73-1.19,0-.21-.51-.21-.59-.51-.07-.25.98-2.15,1.13-2.53.33-.31.73.19,1.06.27.3-.3.36-1.02.91-.9.73.16-.25,1.11-.2,1.35.22.16.8.32.8.61,0,.36-1.31,1.84-1.51,2.29-.4.24-.74-.29-.92-.18l-4.1,7.24h2.04c.07,0,.36-.17.43-.24.52-.55-.28-1.67-.27-2.33l1-1.75h.12s2.65,9.29,2.65,9.29c.12,1.24-.7,1.92-1.89,1.86v1.13l-.09.09h-1.59l-.57-1.18-9.37-.04c-.27.05-.44,1.04-.73,1.22h-1.62ZM10.57,2.73c-.43-.01-.83-.06-1.1.33-1.16,3.81-2.3,7.66-3.3,11.52,0,.27.4.64.64.64h3.66l.09-.09V2.73ZM12.94,15.22l.76-.06,2.53-4.48-2.17-7.53c-.24-.46-.66-.45-1.13-.43v12.49ZM11.1,3.84c-.26.08-.23.42.11.47.19.03.91.04,1.09,0,.31-.06.35-.43.06-.49-.15-.03-1.15-.02-1.27.01ZM12.2,5.46c.11-.1.06-.35-.09-.4-.23-.08-1.06-.07-.85.36.11.19.82.16.93.05ZM12.37,6.27c-.32-.05-.92,0-1.28,0-.04,0-.19.19-.16.27,0,.06.13.22.16.22h1.34c.11,0,.24-.44-.06-.49ZM11.4,7.5c-.09.03-.15.11-.17.2-.04.4,1,.39,1.03.05.02-.31-.67-.31-.86-.25ZM11.01,9.18c.11.11,1.04.1,1.23.07.39-.06.43-.47.06-.54-.21-.04-1.3-.06-1.36.16l.07.31ZM11.4,10c-.18.05-.24.29-.07.41.18.13.88.13.93-.16.06-.34-.67-.31-.86-.25ZM12.43,11.2c-.18-.06-1.07,0-1.34,0-.04,0-.19.19-.16.27,0,.06.13.22.16.22h1.28c.23,0,.25-.43.06-.49ZM12.2,12.5c-.11-.11-.83-.15-.93.05-.22.43.62.43.85.36.15-.05.19-.3.09-.4ZM11.16,13.65c-.32.07-.3.42-.01.47.18.03,1.25.02,1.34-.06.18-.16.01-.39-.19-.43-.18-.03-.97-.03-1.14.01Z" fill="currentColor"/>
</svg>