<?xml version="1.0" encoding="UTF-8"?><svg id="a" xmlns="http://www.w3.org/2000/svg" viewBox="0 0 24 24"><g id="b"><path fill="currentColor" id="c" d="M19.83,6.88c-.1-.19-.15-.41-.24-.61-.83-1.89-2.82-2.9-4.85-2.46-1.63-1.95-4.63-2.1-6.39-.24-2.29-.4-4.46,1.17-4.89,3.42C.17,7.83-.9,11.98,1.67,14.28c.62.55,1.23.66,1.86,1.07.92.61.54,1.81.61,2.78.26,4.06,6.01,5.03,7.57,1.19.39-.97.29-2,.29-3.02.68-.14,1.29-.54,1.66-1.14.25-.4.36-.85.38-1.31.03-.6-.02-1.21,0-1.81.09-.06.19-.09.27-.16.27-.25.24-.71-.06-.93-.04-.03-.19-.11-.23-.11h-.5v-2.27c0-.09-.12-.27-.19-.33-.33-.28-.89-.03-.89.38v2.19s.02.01.02.03h-1.92v-2.25c0-.08-.12-.29-.19-.34-.33-.27-.83-.07-.89.34v2.25h-.48c-.1,0-.31.15-.37.23-.28.37-.05.84.36.96.02.66-.04,1.35,0,2.01.06,1.13,1.01,2.1,2.11,2.28,0,1.06.15,2.1-.42,3.06-1.21,2.04-4.23,1.92-5.3-.19-.89-1.75.59-3.6-1.65-4.79-.43-.23-.84-.35-1.25-.65-2.12-1.58-1.58-4.98.93-5.8.22-.07.65-.11.8-.25.16-.15.18-.66.25-.9.43-1.5,1.93-2.5,3.48-2.38.17.01.38.09.54.09.37.01.42-.23.65-.44,1.38-1.29,3.53-1.21,4.79.2.25.28.3.58.75.51.22-.04.44-.13.67-.15,1.57-.12,3.03.74,3.52,2.25.08.24.1.65.29.8.17.14.57.09.81.12,2.89.38,3.95,4.12,1.59,5.9-1.4,1.06-2.54.57-4.09.71-.57.05-.6.85.03.91.6.05,1.57.03,2.18,0,1.9-.1,3.6-1.47,4-3.35.54-2.51-1.3-4.91-3.84-5.1ZM10.64,13.68c.06-.33.37-.65.71-.7.9-.12,1.4.99.69,1.56-.63.51-1.56-.06-1.41-.86Z"/></g></svg>