<?xml version="1.0" encoding="UTF-8"?>
<svg id="logo" xmlns="http://www.w3.org/2000/svg" viewBox="0 0 192 192" fill="white">
  <rect id="_1" data-name="1" x="1.76" y="87.32" width="20.25" height="17.35" rx="1.08" ry="1.08"/>
  <path id="_2" data-name="2" d="M44.34,100.52v-30.96c0-.6-.48-1.08-1.08-1.08h-12.37c-.6,0-1.08.48-1.08,1.08v52.89c0,.6.48,1.08,1.08,1.08h18.09c.6,0,1.08-.48,1.08-1.08v-19.77c0-.6-.48-1.08-1.08-1.08h-3.56c-.6,0-1.08-.48-1.08-1.08Z"/>
  <path id="_3" data-name="3" d="M62.47,101.6h-3.54c-.6,0-1.08.48-1.08,1.08v30.35c0,.6.48,1.08,1.08,1.08h18.09c.6,0,1.08-.48,1.08-1.08V58.97c0-.6-.48-1.08-1.08-1.08h-12.39c-.6,0-1.08.48-1.08,1.08v41.55c0,.6-.48,1.08-1.08,1.08Z"/>
  <rect id="C" x="85.88" y="28.24" width="20.25" height="135.52" rx="1.08" ry="1.08"/>
  <path id="_4" data-name="4" d="M128.46,100.52v-41.55c0-.6-.48-1.08-1.08-1.08h-12.39c-.6,0-1.08.48-1.08,1.08v74.06c0,.6.48,1.08,1.08,1.08h18.09c.6,0,1.08-.48,1.08-1.08v-30.35c0-.6-.48-1.08-1.08-1.08h-3.55c-.6,0-1.08-.48-1.08-1.08Z"/>
  <path id="_5" data-name="5" d="M146.58,101.6h-3.55c-.6,0-1.08.48-1.08,1.08v19.77c0,.6.48,1.08,1.08,1.08h18.09c.6,0,1.08-.48,1.08-1.08v-52.89c0-.6-.48-1.08-1.08-1.08h-12.39c-.6,0-1.08.48-1.08,1.08v30.96c0,.6-.48,1.08-1.08,1.08Z"/>
  <rect id="_6" data-name="6" x="169.99" y="87.32" width="20.25" height="17.35" rx="1.08" ry="1.08"/>
</svg>