<?xml version="1.0" encoding="UTF-8"?>
<svg id="drum" xmlns="http://www.w3.org/2000/svg" viewBox="0 0 24 24">
  <path id="color1" d="M5.18,4.9c-.92-.37-2.37-.86-3.17-1.38-.03-.02-.12-.03-.05-.09.03-.02.6-.14.68-.15,1.01-.17,1.98-.02,2.94.31-.06.13-.05.23.09.29.16.07.26.08.32-.09.96.32,1.86.97,2.48,1.77.05.07.46.63.41.67-1.2-.31-2.35-.8-3.5-1.26-.06-.03-.14-.06-.2-.08ZM19.35,3.37c-.28.07-.56.19-.85.23.07.13.16.21-.05.29-.16.07-.26.08-.32-.09-.34.09-.69.27-.99.46-.77.46-1.52,1.17-1.9,1.99,1.2-.31,2.35-.8,3.5-1.26.06-.03.14-.06.2-.08.84-.34,1.7-.66,2.51-1.05.16-.08.48-.21.6-.3.05-.03.08-.04.07-.12-.9-.27-1.87-.28-2.78-.07ZM19.6,9.08c0,.16.03.47,0,.61-.03.16-.46.3-.61.39-.24.15-.12.12-.45.2-.07.02-.15.04-.12.12-.05-.04-.09,0-.12,0-.28.04-.68.2-.98.29-.13.04-.35.05-.45.08-.02,0-.05.07-.08.08.35.59.64,1.23.77,1.91.08.39.12.82.12,1.22,0,.89-.25,1.84-.69,2.61.32.26.13.63-.24.45-.24.35-.5.72-.81,1.02-.08.08-.24.22-.33.29-.89.71-2.12,1.1-3.26,1.1-.1.27-.4.19-.45-.04-1.09,0-2.2-.43-3.08-1.05-.05-.03-.12-.04-.13-.05-.04-.03-.24-.25-.33-.33-.15-.13-.68-.75-.73-.77-.03-.01-.1,0-.16-.02-.13-.06-.16-.23-.08-.35-.5-.82-.8-1.8-.81-2.77,0-.43.03-.92.12-1.34.13-.61.4-1.2.69-1.75-.04-.03-.14-.18-.2-.2-.12-.03-.32-.04-.49-.08-.29-.08-.57-.15-.86-.24-.04-.01-.08-.03-.12-.04-.07-.02-.16-.1-.24-.12-.09-.03-.23,0-.36-.07-.09-.05-.08-.13-.09-.13-.14-.09-.62-.21-.65-.39.04-.73.08-1.46.16-2.18,0-.05,0-.11,0-.16,0-.03,0-.07.04-.08,0-.11,0-.26,0-.37,0-.15-.01-.21.06-.37.04-.08.25-.29.31-.32.26-.12,1.17-.1,1.48-.08.92.07,2.92.79,3.45,1.56.05.08.16.35.16.44,0,.18-.14.24-.2.35-.03.04-.19.32-.06.28.66-.33,1.4-.56,2.14-.57.04-.4.45-.4.49,0,.62.04,1.25.19,1.81.45.07-.05-.03-.12-.06-.16-.18-.25-.24-.37-.09-.68.29-.61,1.69-1.23,2.32-1.43.63-.2,2.26-.44,2.82-.09.17.1.23.39.24.57,0,.03,0,.05,0,.08,0,.09-.01.31,0,.45,0,0,.04.06.04.12.04.5.1,1.07.12,1.57ZM15.06,8.41c.12-.45.2-.17.35-.1.1.05,1.38-.33,1.6-.4.16-.05,1.21-.39,1.25-.44.03-.05-.03-.2.09-.26.14-.07.16.12.3.1.04,0,.36-.2.41-.25.21-.16.38-.31.17-.56-.34-.41-1.54-.28-2.03-.19-.73.13-2.88.9-3.07,1.69-.14.57.61.44.94.42ZM5.35,7.29c.2.06.1-.15.3-.1.15.04.08.24.13.28.56.21,1.12.41,1.7.58.31.09.69.14.98.24.04.01.04.08.05.08.16.04.07-.13.18-.19.26-.13.19.21.2.23.03.03.77,0,.85-.03.47-.2-.16-.85-.38-1.02-.94-.71-3.2-1.44-4.33-1.05-.71.24-.12.84.33.98ZM16.43,11.1c-.23.06-.38-.17-.24-.37-.72-.89-1.69-1.61-2.8-1.9-.15-.04-.95-.2-1.03-.17-.03,0-.07.13-.23.13-.15,0-.16-.12-.18-.13-.06-.02-.85.11-.98.14-.78.19-1.7.72-2.28,1.26-.09.08-.64.69-.65.75-.04.16.08.26-.13.38-.05.03-.14.03-.15.03-.02.02-.23.46-.26.53-.56,1.28-.62,2.65-.13,3.96.11.29.27.55.36.85.08-.04.33-.06.39.04.05.08,0,.31-.06.37.91,1.19,2.38,1.92,3.87,2,.05-.28.44-.3.49.04,1.41-.07,2.79-.64,3.67-1.77.05-.06.32-.44.33-.47.01-.08-.11-.18.04-.3.02-.01.15-.06.16-.06.92-1.65.81-3.7-.16-5.3Z" fill="#666"/>
  <path id="color2" d="M23.86,19.44s-.29-.02-.32-.04c-.13-.09-.01-.24-.11-.34l-1.63-.96v.73h-.49v-.73l-1.71.98c.19.63-.88.35-.37-.06l2.04-1.22c.08-.11.03-.9.04-1.1.05-1.57.02-3.15.08-4.72-.65-1.68-1.26-3.38-1.95-5.03,0-.03,0-.05,0-.08-.02-.18-.08-.47-.24-.57l-.45-1.3c.06-.03.14-.06.2-.08,1.18,2.78,2.32,5.59,3.42,8.4l.25.14.53,1.05s0,.08,0,.11c-.01.04-.6.35-.69.38-.05.02-.12.04-.17,0-.07-.05-.3-1.15-.4-1.31l.07-.23-.32-.76c.05.46.03.91.04,1.37,0,.1.04.19.04.28.04,1.15,0,2.31.08,3.46.71.46,1.48.85,2.17,1.34.09.05-.09.3-.12.31ZM2.84,17.78c-.09-1.93-.02-3.87-.1-5.8l1.79-4.63s0-.07.04-.08c0-.11,0-.26,0-.37,0-.15-.01-.21.06-.37.04-.08.25-.29.31-.32l.45-1.22c-.06-.03-.14-.06-.2-.08-1.18,2.78-2.32,5.59-3.42,8.4-.04.06-.14.03-.21.1-.22.23-.36.79-.56,1.06-.01.06-.03.12.02.18.06.07.75.43.85.32l.38-1.29-.07-.23.32-.76c-.09,1.7-.09,3.4-.16,5.1l-2.12,1.27c-.26.26.14.51.38.34.12-.09.01-.24.11-.34l1.63-.96v.73h.49v-.73l1.71.98c-.2.62.85.35.39-.05l-2.08-1.26ZM5.54,12.19c-.04-.09-.05-.26-.1-.37l.4-1.38s-.08-.03-.12-.04l-.62,1.4c-.07.08-.32.22-.32.32,0,.06.36.44.42.48.1.06.19.02.29.08.05.03.73.71.75.75.09.16.04.57.32.63,0-.43.03-.92.12-1.34h-.23c-.12-.1-.89-.46-.92-.54ZM19.32,12.26c.15-.27-.15-.31-.26-.48-.14-.22-.28-.68-.4-.94-.05-.09-.17-.39-.24-.43-.05-.04-.09,0-.12,0l.44,1.48c-.1.09-.09.25-.15.33-.04.05-.7.43-.82.49-.07.03-.12.08-.2.06.08.39.12.82.12,1.22.22-.1.15-.4.24-.55.03-.05.73-.75.78-.77.06-.02.12.03.17.02.03,0,.42-.38.44-.42ZM8.69,18.31s-.24-.25-.33-.33c-.23.25-.43.74-.65.96-.12.12-.31.11-.29.36.02.27.47.34.64.15.1-.11,0-.28.04-.41.06-.18.48-.54.59-.74ZM16.53,18.92c-.21-.25-.35-.62-.59-.85-.08.08-.24.22-.33.29.1.21.48.5.55.69.04.12-.02.19,0,.29.05.34.61.29.67,0,.05-.25-.17-.28-.3-.42ZM6,3.81c.05-.16.12-.75-.17-.51-.02.02-.23.29-.24.31-.06.13-.05.23.09.29.16.07.26.08.32-.09ZM18.45,3.9c.21-.09.12-.17.05-.29-.33-.63-.54-.34-.37.2.05.17.15.16.32.09ZM16.18,10.73c-.72-.89-1.69-1.61-2.8-1.9-.15-.04-.95-.2-1.03-.17-.03,0-.07.13-.23.13-.15,0-.16-.12-.18-.13-.06-.02-.85.11-.98.14-.78.19-1.7.72-2.28,1.26-.09.08-.64.69-.65.75-.04.16.08.26-.13.38-.05.03-.14.03-.15.03-.02.02-.23.46-.26.53-.56,1.28-.62,2.65-.13,3.96.11.29.27.55.36.85.08-.04.33-.06.39.04.05.08,0,.31-.06.37.91,1.19,2.38,1.92,3.87,2,.05-.28.44-.3.49.04,1.41-.07,2.79-.64,3.67-1.77.05-.06.32-.44.33-.47.01-.08-.11-.18.04-.3.02-.01.15-.06.16-.06.92-1.65.81-3.7-.16-5.3-.23.06-.38-.17-.24-.37ZM5.02,6.31c-.71.24-.12.84.33.98.2.06.1-.15.3-.1.15.04.08.24.13.28.56.21,1.12.41,1.7.58.31.09.69.14.98.24.04.01.04.08.05.08.16.04.07-.13.18-.19.26-.13.19.21.2.23.03.03.77,0,.85-.03.47-.2-.16-.85-.38-1.02-.94-.71-3.2-1.44-4.33-1.05ZM15.06,8.41c.12-.45.2-.17.35-.1.1.05,1.38-.33,1.6-.4.16-.05,1.21-.39,1.25-.44.03-.05-.03-.2.09-.26.14-.07.16.12.3.1.04,0,.36-.2.41-.25.21-.16.38-.31.17-.56-.34-.41-1.54-.28-2.03-.19-.73.13-2.88.9-3.07,1.69-.14.57.61.44.94.42Z" fill="#b3b3b3"/>
</svg>