<?xml version="1.0" encoding="UTF-8"?>
<svg id="micro" xmlns="http://www.w3.org/2000/svg" viewBox="0 0 24 24">
  <path id="color2" d="M18.73,6.54c-.02-.15-.21-.55-.33-.55h-1.8v-1.21c0-2.17-2.2-4.16-4.29-4.29-.53-.03-2.76.09-2.31,1.03l-.44.22c-.58-.58-1.52.62-.88,1.03l-.37.51c-.37-.1-.58.1-.72.42-.21.5-.24,1.71-.24,2.3-.24,0-.49,0-.73,0-.49,0-1.13-.16-1.38.35,0,3.07-.49,6.03,1.78,8.46.3.32.93,1.03,1.36.55.5-.57-.47-1.14-.81-1.54-.46-.55-1.25-2.01-1.25-2.71v-1.87h1.03v1.21c0,2.63,2.95,4.66,5.45,4.2.61-.11,1.69-.36,1.52-1.15.21-.18.64-.7.88-.73.22-.04.37.08.59-.1.17-.13.47-.84.54-1.07.26-.81.27-1.57.26-2.42.14.01.3-.02.44,0,.21.02.43.12.66.07-.01.81-.03,1.67-.23,2.45-.65,2.52-3.15,4.34-5.75,4.22-.76-.03-1.44-.4-2.16-.33-.31.17-.31.71-.03.91.38.26,1.86.38,1.93.45.04.04-.02.66,0,.8h-1.06c-.15,0-.31.24-.33.4-.2,1.49.16,3.45,0,4.99.1.63.97.48,1.02-.11h1.76c.05.59.92.74,1.02.11-.15-1.54.21-3.5,0-4.99-.02-.16-.19-.4-.33-.4h-1.06v-.8c2.83-.24,5.27-2.22,5.99-4.98.32-1.2.39-4.16.24-5.41ZM10.26,3.94c.71-.1,2.55-.07,3.3,0,.12.01.29,0,.38.1.32.3.14.86-.32.93-.52.08-2.77.08-3.29,0-.62-.1-.61-.94-.07-1.02ZM10.27,6c1.02.08,2.38-.16,3.35-.01.64.1.71.97-.15,1.09-.59.08-2.4.08-2.99,0-.73-.1-.89-.77-.21-1.08ZM10.19,10.26h3.5c.56.18.52.92-.08,1.01-.52.08-2.77.08-3.29,0-.56-.09-.63-.75-.14-1.01ZM10.27,8.13c1.02.08,2.37-.16,3.35-.01.6.09.63.83.08,1.02h-3.44c-.53-.21-.53-.83.01-1.01Z" fill="#b3b3b3"/>
  <path id="color1" d="M10.27,6c1.02.08,2.38-.16,3.35-.01.64.1.71.97-.15,1.09-.59.08-2.4.08-2.99,0-.73-.1-.89-.77-.21-1.08ZM10.33,4.96c.52.08,2.77.08,3.29,0,.46-.07.63-.63.32-.93-.09-.09-.26-.09-.38-.1-.75-.06-2.59-.09-3.3,0-.54.08-.54.92.07,1.02ZM13.62,8.12c-.98-.15-2.33.09-3.35.01-.55.18-.54.8-.01,1.01h3.44c.55-.19.52-.93-.08-1.02ZM13.7,10.24h-3.5c-.5.27-.43.93.14,1.02.52.08,2.77.08,3.29,0,.59-.09.63-.83.08-1.02Z" fill="#666"/>
</svg>