<?xml version="1.0" encoding="UTF-8"?>
<svg id="rhodes" xmlns="http://www.w3.org/2000/svg" viewBox="0 0 24 24">
  <path id="color2" d="M18.81,4.3v10.77c-.58.57-1.32,1.05-1.99,1.55-1.41,1.04-2.84,2.06-4.29,3.05-2.44.03-4.9.09-7.34-.03V4.36l13.62-.06ZM8.5,12.9v-7.79l-.1-.1h-2.48v13.97h3.47l.1-.1v-5.98h-.99ZM12.79,5.01h-1.49l-.1.1v7.79h-.99v6.08h1.82l.1-.1v-4.08s.26-.23.3-.23h1.36v-1.68h-.99v-7.89ZM18.08,5.01h-2.48l-.1.1v7.79h-.99v1.68h3.57V5.01ZM17.29,15.29h-4.43v3.23l4.43-3.23Z" fill="#b3b3b3"/>
  <path id="color1" d="M.26,9.79h3.2c.7.04,1.46.3,1.41,1.11-.02.38-.26.64-.61.8l-.38.13c.39.06.67.3.82.65.03.08.1.3.1.37v.84h.67v.44l-.03.03h-1.38c-.51,0-.9-.38-.95-.87-.03-.27.06-.71-.08-.93-.04-.06-.22-.2-.3-.2h-.45v1.96l-.03.03H.26v-.43h.46v-3.52h-.46v-.43ZM2.28,11.45c.42,0,.9-.12.9-.62s-.47-.64-.9-.62v1.23ZM5.62,9.79l-.03.03v.39h.32v3.95h1.24v-1.94c0-.15.09-.47.16-.6s.25-.29.42-.26c.06.01.15.12.15.17v2.64h1.56v-.43h-.32v-2.3c0-.2-.26-.48-.44-.56-.45-.2-1.24-.06-1.54.35v-1.44h-1.53ZM16.78,9.79v3.95h.32v.39l-.03.03h-1.53v-.27s-.28.23-.28.23c-.19.08-.38.09-.59.05-1.83-.35-1.37-3.9.54-3.33.13.04.22.11.33.16v-.75c-.08-.07-.22-.02-.32-.03v-.43h1.56ZM15.07,11.18c-.13.02-.19.14-.22.25-.09.31-.08,1.46-.05,1.82.01.14.06.44.19.51.25.14.43-.1.49-.31.09-.34.09-1.63,0-1.95-.06-.17-.2-.35-.4-.31ZM11.19,10.8c1.27-.13,2.27.94,1.92,2.17-.41,1.43-2.44,1.66-3.2.37-.59-1.02.06-2.42,1.28-2.54ZM11.39,11.09c-.19.03-.27.31-.29.48-.04.37-.05,1.71.03,2.03.14.54.62.39.68-.1-.03-.63.05-1.31,0-1.93-.02-.23-.13-.53-.42-.48ZM20.57,12.57h-1.88v.44c0,.13.16.42.28.49.4.27.9-.06,1.2-.32l.33.28c-.17.26-.5.49-.78.6-1.49.59-2.97-.84-2.29-2.29.58-1.24,2.61-1.4,3.05,0,.03.09.1.36.1.44v.35ZM19.39,12.12v-.59s-.04-.15-.05-.17c-.13-.36-.48-.36-.61,0-.01.03-.05.16-.05.17v.59h.71ZM21.05,13.07v.99h.39v-.16c.06.05.12.09.18.12.93.49,2.25.01,2.06-1.16-.13-.79-1.11-.88-1.6-1.26-.39-.3-.02-.58.38-.49.27.07.5.42.64.64h.4v-.83h-.41v.16c-.41-.36-1.2-.36-1.64-.09-.54.33-.57,1.14-.14,1.57.37.37.92.44,1.29.72.31.24.25.58-.16.59-.47,0-.89-.35-1-.79h-.39Z" fill="#666"/>
</svg>