<?xml version="1.0" encoding="UTF-8"?>
<svg id="synthetiseur" xmlns="http://www.w3.org/2000/svg" viewBox="0 0 24 24">
  <path id="color2" d="M23.3,5.9H.7c-.17,0-.36.05-.41.23l-.02,11.57c-.01.29.22.4.48.39h22.55c.18,0,.33-.09.43-.23V6.13c-.1-.16-.24-.23-.43-.23ZM4.53,17.41c-.18,0-.37,0-.55,0-.37,0-.74.02-1.1-.05v-6.23h1.15c-.01,1.3.02,2.6,0,3.89.06.05.04.14.09.21.12.16.42.09.42.11v2.06ZM5.04,14.66h-.32v-3.53h.32v3.53ZM6.92,17.41c-.18,0-.37,0-.55,0-.38,0-.76-.07-1.15-.05v-1.95c.1-.1.5-.06.5-.27v-4.01h.69c-.01,1.31.02,2.63,0,3.94.02.32.5.24.5.27v2.06ZM7.42,14.66h-.32v-3.53h.32v3.53ZM9.3,17.34c0,.1-.49.07-.6.07-.23,0-.88.05-1.05,0-.06-.02-.04-.05-.05-.09-.06-.63.04-1.34,0-1.97.14.04.5-.03.5-.21v-4.01s.52,0,.6,0h.6v6.21ZM11.68,17.34c0,.1-.4.07-.48.07-.06,0-.1-.05-.11-.05-.36-.01-.73,0-1.1,0v-6.23c.35.03.76-.04,1.1,0,.03,0,.1-.02.09.03v3.93c.06.37.5.22.5.25v1.99ZM12.18,14.66h-.37v-3.53h.37v3.53ZM14.02,17.41c-.18,0-.37,0-.55,0-.38,0-.77.02-1.15-.05v-1.95c.1-.1.5-.06.5-.27v-4.01h.69c-.01,1.33.02,2.66,0,3.99.05.26.5.2.5.23v2.06ZM14.52,14.66h-.32v-3.53h.32v3.53ZM16.4,17.41c-.18,0-.37,0-.55,0-.38,0-.78.03-1.15-.05v-1.95c.1-.1.5-.06.5-.27v-4.01h.69c-.01,1.33.02,2.66,0,3.99.07.05.11.17.18.21.09.04.32,0,.32.02v2.06ZM16.9,14.66h-.32v-3.53h.32v3.53ZM18.78,17.34c0,.1-.49.07-.6.07-.37,0-.73,0-1.1,0v-2.06s.22.01.29,0c.04-.01.22-.18.22-.2v-4.01s.52,0,.6,0h.6v6.21ZM23.04,17.41c-.18,0-.37,0-.55,0-.23,0-.46-.01-.69-.05v-2.08c0-.05-.26-.21-.32-.21-.1,0-.37.2-.37.3v1.99c-.18,0-.37,0-.55,0-.37,0-.73,0-1.1,0v-6.23c.37,0,.73,0,1.1,0,.18,0,.37,0,.55,0v2.77c0,.14.23.25.37.25.22,0,.3-.07.32-.3.11-.96-.09-2.13,0-3.12,0-.14-.07-.25-.22-.29H2.54c-.11-.04-.34.09-.34.2v6.71H.96V6.59c7.18.07,14.36-.09,21.54,0,.18,0,.37,0,.55,0v10.81ZM16.58,7.67c.04.37.04,1.27,0,1.65-.02.18-.04.34-.23.41l-5.57.02c-.14,0-.3-.19-.3-.32,0-.21.19-.36.39-.37,1.49-.01,2.98.02,4.47,0,.18,0,.37,0,.55,0v-1.1c-.18,0-.37,0-.55,0-2.41-.03-4.83.02-7.24,0v1.1h1.21c.13,0,.3.23.3.37,0,.15-.15.29-.3.32-.29.05-1.25.04-1.56,0-.25-.03-.32-.16-.34-.39-.04-.35-.05-1.41,0-1.74.03-.2.17-.37.38-.35h8.39c.24-.02.36.17.39.39ZM20.7,7.47c-1.42.08-1.28,2.28.17,2.14,1.35-.12,1.19-2.22-.17-2.14ZM20.5,8.84c-.37-.33.14-.9.51-.58.34.29-.11.94-.51.58ZM18.18,7.47c-1.45.08-1.27,2.28.17,2.14,1.34-.13,1.18-2.22-.17-2.14ZM18.3,8.93c-.55.07-.58-.71-.12-.77.46-.06.61.71.12.77ZM6.72,7.66c.32.26-.09.85-.47.54-.35-.29.12-.82.47-.54ZM2.76,9.44c-.34-.12-.29-.56-.03-.64.65-.19.6.84.03.64ZM5.53,8.18c-.35.35-.82-.23-.49-.51.34-.29.81.2.49.51ZM6.65,9.42c-.48.25-.72-.5-.3-.62.43-.13.66.43.3.62ZM2.73,7.61c.62-.18.61.74.09.67-.39-.05-.39-.58-.09-.67ZM5.32,9.47c-.41.07-.54-.58-.16-.67.56-.13.59.59.16.67ZM4.17,9.46c-.42.13-.62-.55-.24-.66.52-.15.65.54.24.66ZM4.17,8.27c-.42.13-.61-.55-.24-.66.52-.15.65.54.24.66Z" fill="#b3b3b3"/>
  <path id="color1" d="M22.49,6.59c-7.18-.09-14.36.07-21.54,0v10.77h1.24v-6.71c0-.1.23-.24.34-.21h19.05c.14.04.21.16.22.3-.09.99.11,2.16,0,3.12-.03.22-.1.3-.32.3-.14,0-.37-.11-.37-.25v-2.77c-.18,0-.37,0-.55,0-.37,0-.73,0-1.1,0v6.23c.37,0,.73,0,1.1,0,.18,0,.37,0,.55,0v-1.99c0-.1.26-.3.37-.3.07,0,.32.15.32.21v2.08c.23.03.45.04.69.05.18,0,.37,0,.55,0V6.59c-.18,0-.37,0-.55,0ZM2.73,7.61c.62-.18.61.74.09.67-.39-.05-.39-.58-.09-.67ZM2.76,9.44c-.34-.12-.29-.56-.03-.64.65-.19.6.84.03.64ZM4.17,9.46c-.42.13-.62-.55-.24-.66.52-.15.65.54.24.66ZM4.17,8.27c-.42.13-.61-.55-.24-.66.52-.15.65.54.24.66ZM5.32,9.47c-.41.07-.54-.58-.16-.67.56-.13.59.59.16.67ZM5.53,8.18c-.35.35-.82-.23-.49-.51.34-.29.81.2.49.51ZM6.65,9.42c-.48.25-.72-.5-.3-.62.43-.13.66.43.3.62ZM6.25,8.2c-.35-.29.12-.82.47-.54.32.26-.09.85-.47.54ZM16.59,9.32c-.02.18-.04.34-.23.41l-5.57.02c-.14,0-.3-.19-.3-.32,0-.21.19-.36.39-.37,1.49-.01,2.98.02,4.47,0,.18,0,.37,0,.55,0v-1.1c-.18,0-.37,0-.55,0-2.41-.03-4.83.02-7.24,0v1.1h1.21c.13,0,.3.23.3.37,0,.15-.15.29-.3.32-.29.05-1.25.04-1.56,0-.25-.03-.32-.16-.34-.39-.04-.35-.05-1.41,0-1.74.03-.2.17-.37.38-.35h8.39c.24-.02.36.17.39.39.04.37.04,1.27,0,1.65ZM18.35,9.62c-1.44.14-1.61-2.06-.17-2.14,1.35-.08,1.51,2.01.17,2.14ZM20.87,9.62c-1.45.13-1.59-2.07-.17-2.14,1.36-.07,1.52,2.02.17,2.14ZM18.19,11.13h.6v6.21c0,.1-.49.07-.6.07-.37,0-.73,0-1.1,0v-2.06s.22.01.29,0c.04-.01.22-.18.22-.2v-4.01s.52,0,.6,0ZM8.7,11.13h.6v6.21c0,.1-.49.07-.6.07-.23,0-.88.05-1.05,0-.06-.02-.04-.05-.05-.09-.06-.63.04-1.34,0-1.97.14.04.5-.03.5-.21v-4.01s.52,0,.6,0ZM11.68,15.34v1.99c0,.1-.4.07-.48.07-.06,0-.1-.05-.11-.05-.36-.01-.73,0-1.1,0v-6.23c.35.03.76-.04,1.1,0,.03,0,.1-.02.09.03v3.93c.06.37.5.22.5.25ZM11.82,11.13h.37v3.53h-.37v-3.53ZM4.53,15.34v2.06c-.18,0-.37,0-.55,0-.37,0-.74.02-1.1-.05v-6.23h1.15c-.01,1.3.02,2.6,0,3.89.06.05.04.14.09.21.12.16.42.09.42.11ZM6.92,15.34v2.06c-.18,0-.37,0-.55,0-.38,0-.76-.07-1.15-.05v-1.95c.1-.1.5-.06.5-.27v-4.01h.69c-.01,1.31.02,2.63,0,3.94.02.32.5.24.5.27ZM14.02,15.34v2.06c-.18,0-.37,0-.55,0-.38,0-.77.02-1.15-.05v-1.95c.1-.1.5-.06.5-.27v-4.01h.69c-.01,1.33.02,2.66,0,3.99.05.26.5.2.5.23ZM16.4,15.34v2.06c-.18,0-.37,0-.55,0-.38,0-.78.03-1.15-.05v-1.95c.1-.1.5-.06.5-.27v-4.01h.69c-.01,1.33.02,2.66,0,3.99.07.05.11.17.18.21.09.04.32,0,.32.02ZM14.2,11.13h.32v3.53h-.32v-3.53ZM16.58,11.13h.32v3.53h-.32v-3.53ZM4.72,11.13h.32v3.53h-.32v-3.53ZM7.1,11.13h.32v3.53h-.32v-3.53ZM21.02,8.26c.34.29-.11.94-.51.58-.37-.33.14-.9.51-.58ZM18.3,8.93c-.55.07-.58-.71-.12-.77.46-.06.61.71.12.77Z" fill="#666"/>
</svg>