<?xml version="1.0" encoding="UTF-8"?>
<svg id="tom" xmlns="http://www.w3.org/2000/svg" viewBox="0 0 24 24">
  <path id="color1" d="M2.15,9.14c.11-.01.18-.17.26-.24.52-.44,1.34-.27,1.45.24.96-.08,1.92-.19,2.87-.34,1.22-.19,2.42-.46,3.63-.71.08-.71,1.25-1,1.66-.41,2.13-.53,4.24-1.18,6.26-2.01-.14-.51.52-1.03,1.18-.87.35.08.2.21.61-.07.32-.21.65-.5.8-.79.01-.02.05-.04.07-.1.15-.57-1.04-.69-1.56-.73-2.84-.24-7.78.79-10.63,1.57-2.01.55-6.46,1.94-7.82,3.25-.29.28-.5.55-.21.82.23.21.7.31,1.06.36.06,0,.33.03.36.03ZM1.28,8.35c-.08-.08-.06-.12.03-.21.25-.24,1.19-.69,1.56-.87,2.72-1.28,6.01-2.18,8.99-2.81,2.34-.5,5.16-.99,7.49-.9.13,0,.77.04.83.07.07.03.06.13.08.16-.04.03-.07.08-.11.1-.1.05-.64-.03-.81-.04-3.04-.12-7.15.74-10.16,1.54-2.63.7-5.43,1.58-7.67,2.97-.1.05-.17.04-.23-.02ZM20.73,15.85c0,.07.09.28.07.32-.01.02-.46.31-.54.35-1.56.98-3.52,1.69-5.35,2.17-.08.02-.17.1-.24.06-.03-.02-.05-.08-.1-.11-.08-.05-.15-.1-.25-.13-.09-.03-.38-.06-.4-.08-.07-.1-.16-.64-.2-.8-.64-2.54-1.22-5.1-1.82-7.66.31-.16.49-.37.54-.64,2.17-.55,4.32-1.23,6.32-2.14.14.09.27.12.45.16.12.02.14-.05.2.08.21.43.26,1.15.36,1.62.47,2.04.99,4.06,1.47,6.1-.32.15-.54.43-.52.7ZM20.88,16.47l.25,1.04c-1.74,1.26-3.92,2.07-6.1,2.67l-.27-1.13c2.16-.6,4.34-1.37,6.12-2.58ZM13.08,19.45l.27,1.13c-2.21.45-4.52.73-6.65.39l-.24-1.01c.15-.03.3.02.45.03,2.02.17,4.11-.12,6.16-.54ZM12.35,9.01l-.25-1.02s.05-.05.08-.06c2.11-.51,4.19-1.15,6.18-1.97l.23.96c-.36.2-.78.37-1.17.53-1.45.58-2.97,1.04-4.5,1.44-.08.02-.55.21-.57.12ZM10.41,8.35l.26,1.1c-1.89.4-3.82.78-5.73.91-.26.02-.54.04-.79.02l-.23-.96c2.17-.16,4.34-.56,6.48-1.07ZM13.55,18.55s-.14.06-.19.09c-.18.13-.32.34-.32.52-1.87.39-3.8.66-5.66.56-.16,0-.9-.06-.98-.1-.06-.03-.07-.24-.1-.31-.09-.21-.33-.34-.62-.38-.04,0-.15,0-.15,0-.02,0-.07-.27-.08-.33-.63-2.49-1.18-5-1.8-7.5.26-.09.35-.27.49-.42,2.19-.07,4.41-.48,6.58-.95.17.14.28.25.54.31.09.02.22-.02.26.05.61,2.58,1.26,5.16,1.86,7.74.02.1.19.68.17.71ZM3.37,18.4s-.08.08-.08.14c0,.21.81.69,1.05.82.06.03.25.09.28.12.06.07-.02.14-.01.18l.18.75c-.07.02-.12-.02-.17-.04-.52-.25-1.06-.68-1.33-1.1-.33-.53-.36-1.17-.53-1.75.06-.01.12,0,.18-.02.11-.03.16-.07.15-.16-.17-.7-.34-1.39-.5-2.09-.37-1.58-.76-3.16-1.14-4.73.05-.05.38.04.46.06.08.01.5.06.52.07.06.04.09.28.24.4.18.14.38.13.61.19.56,2.35,1.15,4.69,1.7,7.05.06.24.12.48.18.73-.1.05-.23.17-.33.17-.2,0-.85-.46-1-.58-.12-.1-.2-.29-.44-.21ZM11.68,7.87c.18.44.19,1.03.35,1.48-.04.42-.78.57-.93.17-.12-.29-.31-1.09-.33-1.41,0-.14.06-.32.25-.4.27-.11.57-.07.66.15ZM22.09,15.62c.12.31.32,1.11.34,1.43.02.42-.7.64-.92.29-.14-.22-.33-1.14-.37-1.44-.02-.15-.03-.32.17-.43.05-.01.05.32.16.37.08.04.33-.07.33-.08l-.09-.38c.21-.04.34.11.39.24ZM18.94,6.75c-.1-.27-.27-.94-.28-1.23,0-.17.1-.34.32-.42.34-.12.57.03.65.26.1.26.29.99.29,1.25,0,.42-.79.65-.98.13ZM3.48,9.21c.09.25.3,1.05.3,1.3,0,.39-.77.58-.92.2-.1-.24-.32-1.13-.33-1.38,0-.14.13-.29.3-.35.31-.12.56,0,.65.23ZM5.96,19.53c.12.35.29,1.02.33,1.38.05.49-.76.66-.91.27-.13-.31-.34-1.21-.37-1.54,0-.13.07-.25.21-.33.05.1.04.29.09.37.01.02.13.06.18.05.36-.05.07-.48.13-.49.21.01.29.15.34.28ZM14.33,18.95c.2.44.2,1.07.37,1.53-.03.41-.76.58-.93.19-.12-.26-.34-1.19-.36-1.48,0-.11.06-.28.21-.34.02.62.64.47.38-.09.15-.03.29.08.33.18ZM23.41,14.38c-.04.59-.36,1.24-.8,1.76l-.16-.65s-.16-.19-.16-.23c0-.03.38-.51.44-.61.09-.15.35-.64.34-.77,0-.14-.12-.11-.15-.17-.27.04-.22.19-.28.33-.06.14-.13.28-.2.42-.06.11-.32.51-.41.58-.1.07-.3.03-.41,0-.53-2.21-1.08-4.42-1.6-6.64-.09-.38-.18-.76-.27-1.14.45-.2.61-.55.53-.9l.79-.57c.06.26.12.51.18.77.49,2.02.96,4.04,1.45,6.05.02.07.11.11.21.1,0,0,.18-.1.19-.1.12.58.35,1.16.31,1.77ZM2.37,10.33c-.4.01-1.44-.27-1.51-.57l-.13-.55c.12-.04.18.03.27.05.38.1.77.14,1.16.18l.21.88ZM20.4,4.87l.71-.58.14.58c.06.24-.39.68-.61.86-.14.11-.29.23-.45.32l-.22-.92.43-.26ZM10.69,3.92l-.86.21c.09-.34.62-.47.86-.21ZM2.69,6.52l-.74.37c-.07-.29.46-.56.74-.37ZM18.14,2.8c.18-.28.72-.3.83-.02-.04.04-.72,0-.83.02Z" fill="#666"/>
  <path id="color2" d="M23.19,11.93c-.11-.18-.36-.39-.43-.58-.25-.68-.33-1.5-.49-2.21-.27-1.18-.54-2.36-.85-3.53-.01-.05-.07-.1-.07-.14,0-.07.27-.41.24-.68-.03-.27-.25-1.21-.39-1.41-.22-.3-.74-.41-1.16-.48-.1-.02-.59-.05-.63-.07-.05-.03-.1-.2-.15-.28-.28-.36-.99-.32-1.36.06-.06.06-.14.22-.2.23-2.21.13-4.43.54-6.63.99-.25-.47-1.25-.41-1.53.12-.04.08-.04.25-.14.29-2.15.57-4.29,1.24-6.31,2.11-.16-.04-.24-.13-.42-.16-.48-.07-1,.19-1.09.59-.02.09.01.32,0,.33-.02.03-.57.37-.68.45-.36.28-.74.67-.69,1.06.04.29.25,1.23.42,1.44.09.11.23.18.36.26l1.45,5.97c-.35,1.71.19,3.45,1.97,4.36.09.05.4.15.44.19.08.08.08.33.13.44.17.44.87.55,1.35.19.09-.07.16-.19.25-.21,2.18.31,4.53.06,6.79-.41.07,0,.18.15.24.2.39.28,1.13.09,1.36-.32.04-.07.06-.23.08-.25.05-.07.4-.12.51-.16,1.9-.58,3.75-1.28,5.36-2.31.09-.06.34-.26.4-.29.1-.04.16.04.24.06.45.09.93-.08,1.14-.45.16-.29-.03-.5-.03-.77.53-.67.97-1.34,1.05-2.09.07-.64-.23-1.99-.56-2.53ZM21.25,4.87c.06.24-.39.68-.61.86-.14.11-.29.23-.45.32l-.22-.92.43-.26.71-.58.14.58ZM18.97,2.77s-.72,0-.83.02c.18-.28.72-.3.83-.02ZM10.69,3.92l-.86.21c.09-.34.62-.47.86-.21ZM2.69,6.52l-.74.37c-.07-.29.46-.56.74-.37ZM.93,7.93c1.36-1.31,5.81-2.69,7.82-3.25,2.86-.79,7.79-1.81,10.63-1.57.52.04,1.7.16,1.56.73-.02.06-.06.07-.07.1-.15.29-.48.58-.8.79-.41.27-.27.15-.61.07-.66-.15-1.32.36-1.18.87-2.02.83-4.13,1.48-6.26,2.01-.41-.58-1.58-.3-1.66.41-1.21.25-2.41.51-3.63.71-.96.15-1.92.25-2.87.34-.11-.51-.93-.68-1.45-.24-.09.07-.16.23-.26.24-.03,0-.3-.02-.36-.03-.36-.04-.84-.15-1.06-.36-.29-.27-.08-.54.21-.82ZM19.92,6.61c0,.42-.79.65-.98.13-.1-.27-.27-.94-.28-1.23,0-.17.1-.34.32-.42.34-.12.57.03.65.26.1.26.29.99.29,1.25ZM18.58,6.91c-.36.2-.78.37-1.17.53-1.45.58-2.97,1.04-4.5,1.44-.08.02-.55.21-.57.12l-.25-1.02s.05-.05.08-.06c2.11-.51,4.19-1.15,6.18-1.97l.23.96ZM12.03,9.35c-.04.42-.78.57-.93.17-.12-.29-.31-1.09-.33-1.41,0-.14.06-.32.25-.4.27-.11.57-.07.66.15.18.44.19,1.03.35,1.48ZM10.68,9.45c-1.89.4-3.82.78-5.73.91-.26.02-.54.04-.79.02l-.23-.96c2.17-.16,4.34-.56,6.48-1.07l.26,1.1ZM3.79,10.51c0,.39-.77.58-.92.2-.1-.24-.32-1.13-.33-1.38,0-.14.13-.29.3-.35.31-.12.56,0,.65.23.09.25.3,1.05.3,1.3ZM.86,9.76l-.13-.55c.12-.04.18.03.27.05.38.1.77.14,1.16.18l.21.88c-.4.01-1.44-.27-1.51-.57ZM4.82,19.19c-.2,0-.85-.46-1-.58-.12-.1-.2-.29-.44-.21,0,.04-.08.08-.08.14,0,.21.81.69,1.05.82.06.03.25.09.28.12.06.07-.02.14-.01.18l.18.75c-.07.02-.12-.02-.17-.04-.52-.25-1.06-.68-1.33-1.1-.33-.53-.36-1.17-.53-1.75.06-.01.12,0,.18-.02.11-.03.16-.07.15-.16-.17-.7-.34-1.39-.5-2.09-.37-1.58-.76-3.16-1.14-4.73.05-.05.38.04.46.06.08.01.5.06.52.07.06.04.09.28.24.4.18.14.38.13.61.19.56,2.35,1.15,4.69,1.7,7.05.06.24.12.48.18.73-.1.05-.23.17-.33.17ZM5.38,21.18c-.13-.31-.34-1.21-.37-1.54,0-.13.07-.25.21-.33.05.1.04.29.09.37.01.02.13.06.18.05.36-.05.07-.48.13-.49.21.01.29.15.34.28.12.35.29,1.02.33,1.38.05.49-.76.66-.91.27ZM6.7,20.97l-.24-1.01c.15-.03.3.02.45.03,2.02.17,4.11-.12,6.16-.54l.27,1.13c-2.21.45-4.52.73-6.65.39ZM13.36,18.65c-.18.13-.32.34-.32.52-1.87.39-3.8.66-5.66.56-.16,0-.9-.06-.98-.1-.06-.03-.07-.24-.1-.31-.09-.21-.33-.34-.62-.38-.04,0-.15,0-.15,0-.02,0-.07-.27-.08-.33-.63-2.49-1.18-5-1.8-7.5.26-.09.35-.27.49-.42,2.19-.07,4.41-.48,6.58-.95.17.14.28.25.54.31.09.02.22-.02.26.05.61,2.58,1.26,5.16,1.86,7.74.02.1.19.68.17.71,0,0-.14.06-.19.09ZM13.78,20.68c-.12-.26-.34-1.19-.36-1.48,0-.11.06-.28.21-.34.02.62.64.47.38-.09.15-.03.29.08.33.18.2.44.2,1.07.37,1.53-.03.41-.76.58-.93.19ZM14.67,18.75s-.05-.08-.1-.11c-.08-.05-.15-.1-.25-.13-.09-.03-.38-.06-.4-.08-.07-.1-.16-.64-.2-.8-.64-2.54-1.22-5.1-1.82-7.66.31-.16.49-.37.54-.64,2.17-.55,4.32-1.23,6.32-2.14.14.09.27.12.45.16.12.02.14-.05.2.08.21.43.26,1.15.36,1.62.47,2.04.99,4.06,1.47,6.1-.32.15-.54.43-.52.7,0,.07.09.28.07.32-.01.02-.46.31-.54.35-1.56.98-3.52,1.69-5.35,2.17-.08.02-.17.1-.24.06ZM15.03,20.18l-.27-1.13c2.16-.6,4.34-1.37,6.12-2.58l.25,1.04c-1.74,1.26-3.92,2.07-6.1,2.67ZM21.51,17.34c-.14-.22-.33-1.14-.37-1.44-.02-.15-.03-.32.17-.43.05-.01.05.32.16.37.08.04.33-.07.33-.08l-.09-.38c.21-.04.34.11.39.24.12.31.32,1.11.34,1.43.02.42-.7.64-.92.29ZM22.61,16.14l-.16-.65s-.16-.19-.16-.23c0-.03.38-.51.44-.61.09-.15.35-.64.34-.77,0-.14-.12-.11-.15-.17-.27.04-.22.19-.28.33-.06.14-.13.28-.2.42-.06.11-.32.51-.41.58-.1.07-.3.03-.41,0-.53-2.21-1.08-4.42-1.6-6.64-.09-.38-.18-.76-.27-1.14.45-.2.61-.55.53-.9l.79-.57c.06.26.12.51.18.77.49,2.02.96,4.04,1.45,6.05.02.07.11.11.21.1,0,0,.18-.1.19-.1.12.58.35,1.16.31,1.77-.04.59-.36,1.24-.8,1.76ZM9.18,5.4c-2.63.7-5.43,1.58-7.67,2.97-.1.05-.17.04-.23-.02-.08-.08-.06-.12.03-.21.25-.24,1.19-.69,1.56-.87,2.72-1.28,6.01-2.18,8.99-2.81,2.34-.5,5.16-.99,7.49-.9.13,0,.77.04.83.07.07.03.06.13.08.16-.04.03-.07.08-.11.1-.1.05-.64-.03-.81-.04-3.04-.12-7.15.74-10.16,1.54Z" fill="#b3b3b3"/>
</svg>