<?xml version="1.0" encoding="UTF-8"?>
<svg id="trombone" xmlns="http://www.w3.org/2000/svg" viewBox="0 0 24 24">
  <path
    id="color2"
    d="M21.42 3.9C14.97 9.81 8.8 16 2.54 22.1c-.11.12-.23.25-.32.38-.09.14-.22.32-.12.48.19.31.61-.05.76-.2L16.62 9.32s0-.07-.01-.11c-.02-.14.04-.25.13-.35.03-.03.15-.11.16-.13.01-.03-.07-.16-.03-.21.03 0 .06.02.08.04.11.08.32.26.42.36.04.04.28.27.25.32-.04.05-.23 0-.26 0 0 0-.12.11-.15.14-.1.07-.23.13-.36.1l-1.66 1.68c-.03.05.11.22.03.31-.05.06-.26-.02-.33-.02L3.12 22.94c-.24.21-.83.71-1.16.4-.47-.44-.06-.96.23-1.35 2.62-2.56 5.26-5.11 7.88-7.67 1.97-1.92 3.89-3.89 5.88-5.8 1.73-1.66 3.55-3.24 5.29-4.88.63-.63.98-1.49.28-2.25-.57-.62-1.25-.43-1.82 0-2.86 2.74-5.8 5.42-8.66 8.17-.65.62-1.39 1.24-1.68 2.11-.06.19-.07.4-.14.59l-.7.75h-.09c-.83-.68-1.66-1.47-2.26-2.34-.1-.15-.32-.47-.37-.63 0-.02-.02-.03 0-.05 1.11.59 2.4.47 3.36-.23.45-.33.92-.7 1.34-1.06 3.09-2.55 6.05-5.25 9.11-7.83.7-.46 1.5-.43 2.13.2.95.94.44 2.02-.32 2.83m-1.58-1.43c-.36.59.58 1.08.9.54.33-.56-.58-1.07-.9-.54m-1.74.57-.15.16 1.64 1.82c.03-.05.17-.11.12-.17-.46-.51-.91-1.04-1.37-1.55-.03-.03-.22-.25-.24-.25Zm-2.18 5.34-1.59-1.75h-.03c-.02.02-.15.13-.14.15l1.58 1.72c.04.06.19-.11.18-.13Zm3.45-6.52.44.47s.16-.1.15-.14l-.44-.49s-.15.12-.14.16Zm1.39 1.29s-.14.12-.14.14l.37.4h.03c.03-.02.13-.11.13-.13l-.37-.41h-.03Zm-6.65 7.83s.33.25.35.26c.05.01.11-.08.14-.11l-.38-.29s-.15.1-.11.15Zm1.14-1.14.38.28.13-.13c-.08-.02-.33-.27-.38-.28-.02 0-.14.11-.13.13"
    fill="#b3b3b3"
  />
  <path
    id="color1"
    d="M5.68 9.89c.11-.07.17.03.26.07 1.04.51 2.26.37 3.14-.27.47-.34.95-.73 1.39-1.1 3.06-2.53 6-5.2 9.02-7.77.35-.24.78-.41 1.23-.36.14.01.27.06.4.07l.14.06c.12.09.25.16.37.25.37.29.69.76.73 1.22.02.22-.02.43-.06.64l-.18.45-.32.49c-.25.34-.58.6-.88.89-1.81 1.7-3.63 3.39-5.44 5.09-.01.02 0 .02.01.04.03.03.27.21.31.24.02.01.04.02.07 0l.63-.62c-.03-.18 0-.28.1-.43.03-.05.16-.14.17-.16.01-.03-.1-.36.15-.27.13.05.63.51.73.63.14.17.13.3-.11.32-.04 0-.09-.01-.13 0s-.1.08-.14.11c-.13.08-.24.12-.4.13l-1.55 1.57s.01.1.02.15c.05.29-.21.29-.43.23L3.27 22.96c-.31.27-.68.63-1.14.58l-.18-.07c-.13-.12-.27-.24-.3-.42-.07-.36.24-.87.47-1.13 4.53-4.4 9.04-8.81 13.53-13.24l.03-.05-1.61-1.75c-.99.97-2.02 1.89-3.01 2.85-1.1 1.06-2.12 1.97-1.5 3.67.04.11.18.33.13.44-.03.05-.11.06-.16.05-.14-.04-.48-.29-.62-.38-.96-.66-1.94-1.57-2.63-2.49-.24-.32-.49-.69-.61-1.06l.02-.05Zm3.55 2.37c.07-.19.08-.4.14-.59.29-.87 1.03-1.49 1.68-2.11 2.85-2.75 5.79-5.43 8.66-8.17.57-.43 1.25-.63 1.82 0 .7.76.34 1.62-.28 2.25-1.74 1.65-3.56 3.23-5.29 4.88-1.99 1.9-3.91 3.87-5.88 5.8-2.62 2.56-5.26 5.11-7.88 7.67-.29.39-.71.91-.23 1.35.33.31.93-.19 1.16-.4l11.77-11.5c.07 0 .28.09.33.02.08-.09-.06-.26-.03-.31l1.66-1.68c.13.03.26-.02.36-.1.03-.02.14-.13.15-.14.02 0 .22.05.26 0 .03-.05-.2-.27-.25-.32-.1-.1-.31-.28-.42-.36a.3.3 0 0 0-.08-.04c-.04.05.04.18.03.21 0 .01-.13.1-.16.13-.1.1-.16.21-.13.35 0 .04.05.07.01.11L2.86 22.76c-.15.15-.58.52-.76.2-.1-.17.03-.34.12-.48s.21-.26.32-.38C8.8 16 14.97 9.82 21.42 3.9c.76-.81 1.27-1.89.32-2.83-.63-.62-1.44-.66-2.13-.2-3.06 2.58-6.02 5.28-9.11 7.83-.43.35-.9.73-1.34 1.06-.96.7-2.25.82-3.36.23-.02.02 0 .03 0 .05.05.16.27.48.37.63.59.87 1.43 1.66 2.26 2.33h.09l.7-.74Zm4.8-1.21s-.03 0-.05.01L2.65 22.15c-.14.15-.45.49-.48.69 0 .01 0 .06.02.07.08.17.31 0 .4-.06 3.82-3.76 7.72-7.44 11.52-11.23.04-.04.29-.27.28-.3-.11-.04-.26-.23-.36-.27m1.7-2.53c.04.06.19-.11.18-.13l-1.59-1.75h-.03c-.02.02-.15.13-.14.15l1.58 1.72Zm.28-.21 3.49-3.23-1.63-1.81-3.46 3.29 1.6 1.74Zm-1.79 2.52s-.15.1-.11.15c.02.02.33.25.35.26.05.01.11-.08.14-.11l-.38-.29Zm.47.23.86-.86c-.07-.04-.34-.29-.39-.28l-.86.86zm4.9-6.05c.03-.05.17-.11.12-.17-.46-.51-.91-1.04-1.37-1.55-.03-.03-.22-.25-.24-.25l-.15.16 1.64 1.82Zm-3.95 5.11.13-.13c-.08-.02-.33-.27-.38-.28-.02 0-.14.11-.13.13zm4.18-5.34 1.1-1.01-.39-.44c-.12 0-.23.04-.36 0-.44-.12-.63-.52-.44-.9l-.44-.49-1.1 1.03zm.14-2.58-.44-.49s-.15.12-.14.16l.44.47s.16-.1.15-.14Zm1.29 1.27c.52-.57.8-1.33.21-1.99-.04-.04-.08-.09-.12-.13-.57-.52-1.29-.16-1.73.28l.45.52s.16-.01.23 0c.47.03.76.5.55.9.07.04.37.44.41.43Zm-.51-.46c.33-.56-.58-1.07-.9-.54-.36.59.58 1.08.9.54m.25.68h.03c.03-.02.13-.11.13-.13l-.37-.41h-.03c-.02.02-.14.12-.14.14l.37.4Z"
    fill="#666"
  />
</svg>