<?xml version="1.0" encoding="UTF-8"?>
<svg id="trompette" xmlns="http://www.w3.org/2000/svg" viewBox="0 0 128 128">
  <path
    id="color2"
    d="M121.18,2.1l-1.33,1.33c.16.18.35.33.51.51l-.1.1c-.82.62-1.3,1.47-.82,2.46-.62.5-1.18,1.34-1.79,1.81-.37.28-1.72.59-1.63,1.63-6.83,6.81-13.66,13.63-20.47,20.46-.27,0-.57.22-.77.38-.59.48-1.38,1.18-1.95,1.71-3.41,3.16-6.59,6.63-10,9.8l-1.02-1.02c-1.62,1.71-3.34,3.38-5.02,5.02l1.43,1.43c-.34.34-.68.68-1.03,1.03l-.51-.51-1.44,1.44.51.51c-1.74,1.74-3.49,3.49-5.23,5.23-.24.24-.48.48-.72.72l-.72-.72-1.33,1.33-.72-.72c-1.64,1.74-3.41,3.45-5.13,5.13l1.43,1.43c-.31.31-.62.62-.92.92l-.82-.82c-1.85,1.8-3.63,3.69-5.49,5.49-9.77,9.5-17.26,17.03-30.65,21.06-7.07,2.13-14.02,2.26-21.26,2.59l-.1.1c10.8,10.33,20.99,21.34,31.74,31.74l.1-.1c.55-3.36.49-6.89.88-10.3.88-7.54,3.25-15.07,7.24-21.57,1.02,1.35,5.42,5.64,6.81,6.46,2.89,1.69,6.92,1.37,9.48-.83,2.08,1.29,5.23.94,7.12-.59l14.1-14.07-2.46-2.46-13.89,13.9c-.48.39-1.52.83-2.1.46,5.11-5,10.1-10.14,15.18-15.18.31-.31.61-.62.92-.92l5.22,5.22,5.02-5.02c-.81-.81-1.59-1.79-2.35-2.56-.41-.41-.82-.82-1.23-1.23-4.08-4.07-8.31-8.09-12.29-12.29-.4-.42-.9-.98-1.33-1.33-.06-.05-.42-.05-.51-.31l1.44-1.44c-.13-.14-.28-.27-.41-.41.24-.24.48-.48.72-.72,2.22-2.22,4.45-4.44,6.67-6.67.34-.34.68-.68,1.03-1.03l18.12,18.12,4.92-4.92c-.46-.41-.87-.91-1.33-1.33,3.11-2.86,7.27-6.84,10.01-10,.21-.24.6-.72.76-.97,7.33-6.79,5.38-18.4-3.72-22.59-1.83-.84-3.71-1.16-5.69-1.37,4.72-4.71,10.29-11.13,15.43-15.03.8-.61.69-1.04.91-1.32.48-.61,1.3-1.17,1.81-1.79.99.48,1.83,0,2.46-.82l.1-.1c.18.16.34.35.51.51l1.33-1.33-5.63-5.63ZM76.04,75.3c1.1-1.53,3.31-1.5,4.2.25.28.56.21,1.75-.17,2.26-.27.37-.56.37-.65.46,1.17-1.3-.06-3.38-1.69-3.34-1.04.03-1.61.94-2.31,1.6-5.13,4.91-9.99,10.12-15.07,15.07-.19-.71.16-1.43.56-2l13.79-13.79c-.82-.82-1.64-1.64-2.46-2.46l-13.87,13.89c-1.54,1.95-2.18,4.79-.9,7.02-1.51,1.16-3.1,1.57-4.87.57-1.3-.74-5.26-4.7-5.83-6.04-.14-.33-.29-.72-.16-1.08.24-.63,1.79-2.51,2.31-3.13,1.13-1.35,2.38-2.73,3.58-4,4.35-4.62,9.03-8.97,13.39-13.59l-.51-.51c.31-.31.62-.62.92-.92l9.73,9.73ZM92.19,57.2c-.74-.88-.22-3.07,1.19-2.93-.54.59-1.07.87-.84,1.79.38,1.56,1.8,1.51,2.89.66-.52,1.44-2.31,1.57-3.23.47ZM99.06,62.01c.11-.47.28-.6.61-.93.2-.2.32-.51.56-.15-.51.62-.86,1.09-.31,1.9.81,1.2,1.91.7,2.77-.06-.35,2.61-4.2,1.72-3.63-.77ZM111.14,49.6c-1.05,1.54-10.44,9.84-10.6,10.61l-4.3-4.3c3.5-3.27,6.68-6.9,10.2-10.15,3.01-2.08,6.32.44,4.7,3.84ZM106.46,31.83c6.15,1.11,9.79,7.46,7.73,13.31-1.89-3.68-6.93-4.26-9.99-1.69-3.26,2.74-7.18,7.05-10.2,10.21l-7.54-7.73,11.5-11.8c2.42-2,5.43-2.85,8.51-2.3ZM60.89,57.28c.34-.4.83-.88,1.23-1.23.77-.69.69-.58,1.43.2-.83.88-1.47,1.52-2.36,2.36-.64-.65-.93-.6-.31-1.33ZM68.27,49.89c.34-.4.83-.88,1.23-1.23.77-.69.69-.58,1.43.2-.84.89-1.48,1.53-2.36,2.36-.64-.65-.93-.6-.31-1.33ZM75.66,42.51c.34-.4.83-.88,1.23-1.23.77-.69.69-.58,1.43.2-.83.88-1.47,1.52-2.36,2.36-.64-.65-.93-.6-.31-1.33ZM92.7,68.98c1.37,1.63,1.31,3.42.24,5.17-.59.73-1.38.78-2,.06-.75-.87.09-1.18.36-1.9.1-.28.11-1.04-.05-1.28-1.68-1.42-3.22-3.59-4.91-4.92-.59-.46-1.21-.4-1.79.06-.19.15-.33.36-.51.51-.13.04-.53.07-.72.1-1.2-.53-1.42-1.59-.41-2.46,1.08-.93,2.87-1.18,4.15-.57,1.25.59,4.64,4.04,5.64,5.23Z"
    fill="#b3b3b3"
  />
  <path
    id="color1"
    d="M34.91,125.84L1.23,92.16c-.1-.64-.09-1.16.56-1.5.96-.5,1.68.69,2.31,1.29,10.8,10.33,20.99,21.34,31.74,31.74,1.39.94.65,2.52-.92,2.15ZM89.46,78.67l-5.02,5.02-5.22-5.22c-.31.3-.61.62-.92.92l.82.82,2.46,2.46,3.38,3.38.92-.92.1-.1,4.92-4.92-.1-.1-1.33-1.33ZM105.76,65.23l-.1.1-4.92,4.92-1.03,1.03-3.89-3.89-1.44,1.44,2.46,2.46,1.33,1.33.1.1-5.23,5.23-.72.72-3.89-3.89-1.33,1.33c-.41-.41-.82-.82-1.23-1.23l1.33-1.33-12.29-12.29-1.33,1.33c-.4-.42-.9-.98-1.33-1.33l1.33-1.33c-.13-.14-.28-.27-.41-.41-.13-.14-.28-.27-.41-.41.24-.24.48-.48.72-.72,2.22-2.22,4.45-4.44,6.67-6.67.34-.34.68-.68,1.03-1.03l18.12,18.12,4.92-4.92s.21.02.35.14c.42.37.77.82,1.18,1.19ZM79.03,53.47c.16.18.35.33.51.51l1.44-1.44c-.17-.17-.34-.34-.51-.51l-1.44,1.44ZM92.95,74.16c1.07-1.76,1.13-3.55-.24-5.17-1-1.19-4.39-4.64-5.64-5.23-1.28-.61-3.07-.35-4.15.57-1.02.87-.8,1.93.41,2.46.19-.03.59-.06.72-.1.18-.15.33-.37.51-.51.58-.46,1.21-.52,1.79-.06,1.69,1.33,3.23,3.5,4.91,4.92.16.24.16,1,.05,1.28-.27.72-1.11,1.04-.36,1.9.62.71,1.41.67,2-.06ZM94.59,66.16l-12.29-12.29-1.44,1.44c4.07,4.12,8.19,8.19,12.29,12.29l1.44-1.44ZM67.04,56.04c.1-.11.21-.2.31-.31l-1.64-1.64c-.7.73-1.46,1.42-2.15,2.15-.83.88-1.47,1.52-2.36,2.36-.74.7-1.42,1.45-2.15,2.15l1.64,1.64c.11-.1.2-.21.31-.31l.61.61.82.82c.31-.31.62-.62.92-.92l-1.43-1.43c1.72-1.68,3.48-3.38,5.13-5.13ZM73.09,46.71c-.7.73-1.46,1.42-2.15,2.15-.84.89-1.48,1.53-2.36,2.36-.74.7-1.42,1.45-2.15,2.15l1.64,1.64c.11-.1.2-.21.31-.31l.72.72.72.72c.24-.24.48-.48.72-.72,1.74-1.74,3.49-3.49,5.23-5.23l-.51-.51-.92-.92c.13-.14.28-.27.41-.41l-1.64-1.64ZM73.81,45.99l1.64,1.64c.11-.1.2-.21.31-.31.31.31.61.61.92.92l.51.51c.34-.34.68-.68,1.03-1.03l-1.43-1.43c1.68-1.65,3.41-3.31,5.02-5.02.1-.11.21-.2.31-.31l-1.64-1.64c-.7.73-1.46,1.42-2.15,2.15-.83.88-1.47,1.52-2.36,2.36-.74.7-1.42,1.45-2.15,2.15ZM62.12,56.05l-5.63-5.63c.69-.72,2.59-2.13.57-2.37-.6.81-3.94,3.51-4.1,4.17-.08.33.31.82.67.82.42,0,1.29-1.05,1.64-1.39l5.63,5.63c.34-.4.83-.88,1.23-1.23ZM68.54,38.26c.38-.13,1.13-1.04,1.49-1.38l5.63,5.63c.34-.4.83-.88,1.23-1.23l-5.63-5.63c.34-.36,1.26-1.11,1.39-1.49.2-.58-.72-1.02-.92-.82l-4,4c-.13.13.22,1.13.82.92ZM61.16,45.65c.38-.13,1.13-1.04,1.49-1.38l5.63,5.63c.34-.4.83-.88,1.23-1.23l-5.63-5.63c.34-.36,1.26-1.11,1.39-1.49.2-.58-.72-1.02-.92-.82l-4,4c-.13.13.22,1.13.82.92ZM79.42,78.27c.1-.09.38-.09.65-.46.38-.51.45-1.7.17-2.26-.89-1.76-3.1-1.78-4.2-.25l-9.73-9.73c-.31.31-.62.62-.92.92l.51.51c2.11,2.11,4.23,4.23,6.35,6.35.82.82,1.64,1.64,2.46,2.46l.72.72c.69-.66,1.26-1.57,2.31-1.6,1.63-.05,2.86,2.04,1.69,3.34ZM102.69,62.77c-.86.75-1.96,1.25-2.77.06-.54-.8-.19-1.28.31-1.9-.24-.36-.37-.05-.56.15-.33.33-.5.46-.61.93-.58,2.48,3.27,3.38,3.63.77ZM95.42,56.74c-1.09.84-2.51.9-2.89-.66-.22-.92.3-1.21.84-1.79-1.41-.14-1.92,2.04-1.19,2.93.92,1.11,2.71.97,3.23-.47Z"
    fill="#666"
  />
</svg>