<?xml version="1.0" encoding="UTF-8"?>
<svg id="Calque_2" data-name="Calque 2" xmlns="http://www.w3.org/2000/svg" viewBox="0 0 500 80" fill="currentColor">
  <path d="M-42.18,87.58c2.85-1.32,6.11-2.26,8.9-3.64,4.91-2.44,9.34-5.28,14.08-7.91,6.03-3.34,12.68-6.13,18.07-10.32,1.03-.8,4.15-3.9,5.12-4.11.43-.09.9.05,1.31-.17-.05.47-.19.81-.55,1.15-6.36,6.02-14.81,10.03-22.72,14.14-4.8,2.89-9.62,5.74-14.69,8.22-2.02.99-4.21,1.61-6.2,2.64h-3.34ZM81.22,82.93c2.35-2.46,3.67-4.83,5.01-7.78.35-.77,1.43-1.73.32-2.25-.95-.07-2.37,3.91-2.83,4.71-2.09,3.64-5.79,6.73-8.53,9.97h1.75l4.28-4.65ZM222.1,2.11l-.63-.14.32-.14c-.57.27-1.05-.3-1.18-.3-1.49.02-3.39.34-4.93.45-.46.03-.94-.14-1.26-.11-.34.03-.85.42-1.37.25l.79.28-3.49.43.16-.28c-.52.09-1.33.05-1.8.14-.33.07-.15.07-.81.13-.77.08-1.52.35-2.31.29l.63.28-.95.22c.71.16,1.19.61,2.07.5l-.32-.28c1.74.48,3.36-.37,5.08-.29l-1.27-.28c.54-.1,1.11-.09,1.66-.15.62-.07,1.39-.21,2.09-.27l.15.28c.99-.64,2.21-.09,3.16-.15.6-.04,1.39-.49,2.16-.29l.16-.65,1.91.22v-.14ZM122.52-.74c-.05-.46.19-1.07-.24-1.43l-.4,1.43c-.23-.25-.18-.33-.16-.72l-1.43-.29.47-.5-.95-.5c.42.6-.28.5-.13,1.11l.61.46-.95.22c.58.76,1.16-.18,1.9.36v.28s-.29.02-.29.02l.13.41h-.48s.16.29.16.29l-.95.14V-.17s-.64.36-.64.36c.35.03.74.76.8.78.4.21.19-.43.63-.28l.16.57.24-.43.37.21-.13.36,1.43.14c-.03.49-.9.57-.79,1.14l.95-.28-.47.5c.16.35.61.34.47.79h-.95s.32-.28.32-.28h-.47s0,.43,0,.43l.48.14-.6.17-.03.4c.48.03,1.39-.15,1.43.43.36-.1.07-.85.16-1.14l.86.44.16-.29,1.04.43.16-.43.08.28c.4-.25.16-.51.08-.86l-.63.43v-.56s.95-.09.95-.09l.16-.43-.32-.14c1.08-.78.53.06.74.46.25.46.95.27.51,1.07-.1.19-.64.35-.46.83l.78-.15.27-.86h.85s-.48.72-.48.72l.78-.16v-1.13s.49.14.49.14c-.33-.46.25-.09.16-.57-.19,0-.39-.14-.57-.14-.35,0-.7.45-.85.07-.13-.31.53-.12.56-.5l.56.22c.09-.86-.87-.21-1.11-.36v-.71s.48.07.48.07c-.52-.58-.48-1.2-.48-1.93l.47-.07-.31-.35,1.11-.72v-.28s-.31-.08-.31-.08c.07-.19.76-.54.79-.29v.64s.39-.01.39-.01l.56,1.73.16-.71.32.28.39-.3,1.02.29c.31-.4.34-.3.18-.84l.63-.14-.32.85c.26.2.75-.54.48-.79l.31-.07c.26.65,1.46.69,2.06,1.22.15.14.11.37.27.5.13.1,1.43.47,1.48.42l-.32-.86.48-.07c-.46-.36-1.07-.14-1.68-.35-.45-.15-.8-.65-1.33-.74l.15-.7-.79.29v-.43c-.77.32-.63-.11-1.05-.41-.07-.05-1.18-.44-1.25-.44-.6,0,.39.67.24.85l-1.11-.29.48-.14c-.29-.3-.27-.46-.14-.85l.59.02.19.26c-.12-.54.31-.53.8-.57.05-.3,0-.31-.32-.29.21-.57.7-.38,1.11-.64l-.47-.07.32-.21c-.48-.63-.59-.14-1.03-.1-.14.02-1.37.13-1.19-.19l1.83-1.22-.08.57.79-.14c-.48.4.04.53-.16,1,.54-.18.95-.38,1.11-.93l-.32-.22-.32.28c.48-.47.17-1.05.88-1.29.47.87.24-.28.59-.54.19-.14.54-.02.75-.12.49-.24,1.1-1.02,1.76-1.26.7-.26,1.67.03,1.42-1.08l.47.43c-.15-.8.59-.86,1.27-.71l-.32.71c.13.16,1.84-.14,1.34.72l-.54.07.95.36c-.27.54-.8,1.31-.08,1.7l.4-.27.16.71c.03-.24-.06-.53,0-.76.04-.15.47,0,.32-.38l-.47.14v-.57s.47.28.47.28c.01-.71.34-1.3,0-2l-.48.14.13-.26c-.97-.41-.04-.87-.13-1.45l-.88.43-.16-.29-.24.57-.16-.71c-.44-.22-.66.71-.79.07l.87-.79.08.57.63-.28c0,.16-.1.55.24.43.53-.2-.24-.42-.12-.67l-.59-.26c.5-.65.9-.86,1.74-1.07.15.58-.15.51-.47.86h.64c.16.13-.34,1.41.32,1.29l-.16-1,.79-.22h-.64c.08-.38-.08-.76.48-.79v-.27s-.3-.02-.3-.02v-.27c.63-.01.25-.56.33-.89.12-.53,2.25-2.14,2.83-2.61,2.81-2.28,5.81-4.43,8.58-6.71,1.07-.89,1.99-1.96,3.17-2.73l.32.16-.16.78.4-.14c.12.38.21.88-.16,1.14l-.4-.85c-.14.86-.42,1.6-1.11,2.22.3.24.49-.28.75-.34.24-.05.45.11.68.13l-.08.28-.4-.08-.26.38-.77-.02-.4,1.01c.41.17.26-.28.41-.29.1,0,.25.14.36.12.09-.02,1.24-1.13,1.27-1.21.08-.25-.02-.54.06-.81.13-.4,1.03-1.2,1.05-1.78l.04-.23-.33-.15c.19-.37.53-.66.32-1.08l-.31.43-.29-.69c1.57-1.11,2.91-2.61,4.26-3.96.28-.28.71-.49.9-.69,1.8-1.83,3.39-3.87,5.13-5.74.04-.34-.05-.18-.28-.11-.6.18-.27.36-.59.75-.8.94-1.9,1.71-2.73,2.62-6.45,7.09-14.06,13.24-21.95,19.07-.18.08-2.74.49-2.96.49-.33,0-.16-.36-.46-.31s-.69.31-1.17.39c-1.92.32-3.98.56-5.91.75-.03.64,1.35.68,1.51.85l.08.58h-.48s.16.29.16.29l-.64.14,4.13-.43-1.11-.28c1.87-.4,3.8-.39,5.72-.57v.43h-3.02c.35.48,1.47-.11,1.75.43-.93-.24-.9.38-1.59.43l.16.57-.47-.57v.85c-.96-.16-.74.77-1.53.99-.31.09-.13-.43-.62-.27-.45.15.04.63-.15.86-.08.11-.46.16-.65.29-.77.52-1.61,1.23-2.41,1.69-.27.16-.75.19-.91.29-.17.12-.1.42-.25.52-.08.05-.34-.08-.52-.04-.29.06-.43.35-.92.11l.25.57c-.84.79-3.51,2.01-1.04,2.58,0,.66-.53.25-.84.31-.21.04-.3.34-.59.26l.16-.71h-.47s-.01.86-.01.86h-.63s.32-.43.32-.43h-.64s.08-1,.08-1l-.7.21.46.65c-.38-.03-.7.24-1.04.28-.63.08-1.23-.3-1.65.08.41.43,1.02.37,1.58.36l-.63-.28c.55-.24,1.57.62,1.54,1.05-.02.23-1.04,1.72-1.23,1.88-.23.19-.94.17-1.27.46-.56.49-.3,1.14-.47,1.75l-.47-.14c.26.69-.12,1.14-.95,1.01v.42c-.69-.38-.25.2-.8.14l.32-.71c-.4.17-.77-.09-.95-.43l.93-.02.1-.27.4.29v-.86s.32.28.32.28v-.57s-.47.14-.47.14v-.43s-.16.28-.16.28h-.31c.06-.54-.43-.17-.72-.2-.19-.03-.27-.31-.55-.22v.71c-.09-.46-.16-.92-.79-.86-.08-.38.21-.55.47-.79.08-.27-.12-.14-.31-.35h.63ZM144.59.75c.05.11.27.23.35.4.35.76.99,1.3.92,1.96.27-.02.49-.02.72.14.48.35,1.49,1.61,1.92,2.13.32.37.89.6.86,1.3-.64.25-1.18-.49-1.53-.53-.19-.02-.41.12-.6.1-.07,0-1.2-.38-1.26-.41-.12-.07-.31-.71-.58-.87l.95.28c0-.65-.25-.32-.42-.47s-.27-.42-.52-.62-.7-.14-.65-.49l-.31.28c0-.31-.09-.63-.48-.57.31.34.33.44.16.86-.48-.29-.91,0-1.43-.06-.93-.1-2.26-.48-3.21-.7-.54-.12-1.22-.71-1.63.04l-.56-.36.79-.07-.31-.5c.61-.19.33-.44.35-.47.11-.14.6-.17.6-.68,0-.24-1.06-.72-.96-.28.04.16.56-.05.16.29-1-.22-1.06.08-1.83.49l-.32-.57-.24.57-.95-.43c-.15.58.33.47.78.59l.02.84-.55-.39-1.1.38-.24-.33.15-.51c-.34.18-.27.54-.79.43.45.44.46.77-.28.52-.05-.02-.03-.19-.12-.21-.24-.07-1.06.46-1.51.12v.43s.49-.08.49-.08l.15.37c.29-.05.26-.24.16-.43l2.22.14c-.54.44-.23.96.08.28.7.45-.12,1.02.72,1.57h-.95c.21.79-.86.7-1.13,1.36.26,1.32.85,2.46.69,3.83l.92,1.68c.28.03.15-.32.14-.48-.12-1.14-.72-2.57-.75-3.55-.04-1.13.77-.92,1.15-1.41.19-.25.15-.65.29-.81.26-.3,1.17-.09,1.33-.76.76-.04.6.4.84.66.13.14.37.16.49.31.22.28.27,1,.78,1.19-.13-.25-.02-.84-.09-1-.06-.13-.31-.27-.42-.46-.28-.5-.13-.96-1.07-1.11.01-.74,1.11-.17,1.67-.14.27.02.52-.11.79-.12.14,0,.31.1.47.12.1,0-.4-.51.72-.14l-.24.28c-.05.45.37.13.62.15.86.09,3,.24,3.65.44.2.06.21.3.37.41.12.09.4.06.49.17.09.11,0,.36.03.39.04.04.37-.11.53-.09,1.15.09,1.4.94,2.13,1.07.37.07.87-.3,1.31.03v-.57s.79-.01.79-.01l.02-.4c.42.27.91-.63.78-.73l-.48-.14.47-.14-1.42.29-.17.56c-.24-.32.74-2.03.95-1.86-.06.5.23.1.45.16.03.01.37.54.42.54.24-.12.91-.2.65-.56-.36-.24-.58-.45-1.04-.28l-.08-.43c-.59.29-1.09.73-1.8.74l-.03.76c-.29.28-.27-.09-.44-.21-.06-.04-.26.01-.33-.02-.02-.01.11-.26,0-.45-.07-.12-.7-.53-.8-.75-.02-.33.47-.12.31-.64l-1.27-.22c.37-.26,1.14.03.95-.64l-1.01.42-.89-.78.32-.5-.63-.15.21-.26,1.06.26-.24-.43,2.74.89.04.45-.32.23c.58.21.83-.61.61-.84-.06-.06-1.47-.63-1.69-.7-.46-.14-1.18-.12-1.69-.34l-.1.29h-.31s-.04-.26-.04-.26c-.16.13-1.1-.17-.92.19ZM138.71,4.11l-.28-.11c-.1.53-.74.08-1.15.11-.17-.55.78-.16.95-.29l-.16-.43h.48s.16.71.16.71ZM132.7,34.18c-.48-.62-.74-1.37-1.37-1.91-.23.11,0,.37.07.51,1.2,2.23,2.77,4.04,5.04,5.47,2.89,1.83,6.28,3.56,9.42,4.96,4.71,2.09,9.32,4.21,13.71,6.81.42.25,2.85,2.05,3.12,1.83-.47-1.28-2.1-1.52-3.17-2.22-1.27-.84-2.52-1.82-3.77-2.61-1.87-1.2-4.06-1.54-6.04-2.5-.18-.09-.76-.77-1.26-.8l-.29.27-1.03-.43.32-.28c-2.62-.55-4.5-2.25-6.68-3.49-2.01-1.14-5.36-2.34-6.76-4-.39-.46-.95-1.15-1.31-1.61ZM158.25,6.69l.16.28c-.67-.03-1.47.1-2.1.3-.15.05-.12.26-.43.35-.75.22-1.61-.05-2.32.35-.75-.12.85-.34.72-.57l-1.27.06-1.51.79,1.57.73.42-.51c.53-.27,4.53-1.38,4.76-1.29.15.06.43.39.32.5l-.81-.08c-.19.09.13,1.48-1.15,1.22-.12-.02-.03-.4-.66-.29l-.08.43c-.4-.2-.71-.14-1.03.14l-.39-.29.16.43c-.39.01-.99.12-.95.57,1.07.25,1.93.84,2.9,1.29.89.41,2.14.67,3.06,1.17.12.06.08.15.08.25l.25-.43c-.16-.19-1.16-.36-1.41-.56s-.05-.75-.9-.58v-.42s.64-.15.64-.15l-.31-.79.47-.35c-.8-.11-.51.42-.67.76-.1.23-.94.96-.77.11l-1.42-.16.63-.64c.24-.12,1.54-.02,1.59-.08.03-.03-.07-.28.04-.39.05-.05,1.24-.55,1.31-.55.14,0,.45.31.71.23.08.41-.51.67-.6.96-.14.43-.04,1.92.68,2.04l.25-.92-.64-.44,1.11-.86-.63.07.34-.69c.66-.28,1.43.48,1.83.52.42.04,1.49-.49,2.12-.11-.07.31-.56.23-.71.43-.12.16-.06.47-.22.66-.14.16-.45.14-.59.25-.59.47-.94,1.22-1.8,1.38l.47.15v.47c-.66.17.12.68.53.83,1.5.54,3.21,1.12,4.61,1.82.07.03.18.56.42.29.51-.55-2.36-1.48-2.6-1.59-.4-.18-.82-.42-1.21-.63.47-.15,1.09.09,1.56-.02.54-.13.34-.44.74-.47.56.33-.25.52.09.91l1.11.45c-.02.73.41.66,1.1.79-.34-.48.27-.8.79-.86v1s-.63-.07-.63-.07c.54.41,1.38.44,1.94.78.49.29.59.95,1.39.86.04-.71-.52-.45-.98-.72-.38-.22-.74-.69-1.26-.79.06-.51-.06-1.06.02-1.55.04-.26.3-.42.33-.86.04-.56-.25-1.09-.18-1.65l-.16.43-.32-.15-.07,2.29c-.79.61-2.26.36-2.67-.47-.22-.43.6-1.27-.03-1.67-.76.67-.53,1.76-1.9,1.56-.41-.06-.57-.32-.84-.39-.46-.11-1.12-.01-1.63-.18-.06-.22.21-.08.31-.25.66-1.09,1.69-2.03,3.04-2.53.17-.06.38.06.43.02.06-.04,0-.23.03-.24.04-.03.78.62.79.67.12.53-.48.95-.08,1.33.42-.75.7-1.61,1.75-1.69l.23.27.16-.86c-.46-.03-.86.19-1.33.14-.61-.07-.77-.64-1.36-.57v.57s-.4-.12-.4-.12l-.71.41c-.05-.23.14-.36.27-.54.2-.28.6-.1.13-.46-.36.75-.52.25-1.13.18-.2-.02-.42.12-.73.07-.4-.07-1.27-.66-1.47-.68-.25-.01-1.84.65-1.36,0-.92-.15-1.5-.04-2.38.14l1.39-.74-.12-.25.95.14-.5-.68-1.25-.03ZM126.17-21.68c.53-.55.82-1.49.87-2.22-.61.78-2.36,4.39-3.35,4.54-.16.03-.46-.16-.54-.11.27.38-.16.6-.16,1l-.63-.28c-.2.17,1.47,2.29-.16,2.14l-.02-.55-1.41-.45.94.8c-.46.75-.08.44.02,1.05h.47s.01-.55.01-.55l.93-.02.02-.99c.51.36,1.44-.8,1.74-.57,0,.45.12.75.64.86l.16-.43-.14.84.62.37c.06.14-1.33.38-.95.64l1.27.14c-.62.24-1.12.11-1.75,0l.16-.28-.48-.14.63-.29c-.39.11-.68-.35-.87-.37-.68-.09-.91.52-.97.52-.24.01-.68-.39-.86.14l.64.43-.48.43c.72.05.74.19,1.03.71l.55-.43v-.28s-.31-.07-.31-.07c.86-.71,1.64.18,2.54.21l-.08-.29.71-.35-.32-.14c.31-.2.32-.35.16-.64.46-.09.21.27.62.37.27.06.54.07.81.06l-.32.43,1.03-.43c.25.5.58.66,1.12.86l.08-.43.25.29.7-.15-.32.57.4.15c.13-.46.75-.26,1.19-.43-.96-.64-2.31-1.08-3.46-1.39-.28-.08-.95-.27-1.06-.29-.32-.07-.74-.1-.8.25-.2-.16-.48-.36-.4-.64.12-.42,1.12.04.95-.5-.56-.25-1.06.29-1.17.27-.1-.01-1.32-.97-1.38-1.05-.66-.86.64-1.9.88-2.8h.55c.05-.28.02-.29-.29-.3l-.03-.19ZM168.42-1.32l.32-1.57.47.14c.06-.69-.53-1.51.16-2.07l-.47-.28c.66-.62.83-1.53,1.43-2.25,1.01-1.23,1.32-1.74,2.2-3.06,1.18-1.77,3.01-4.09,3.9-5.92.13-.27.15-.63.25-.92-.51.1-.66.88-.93,1.31-1.86,2.98-4.05,5.81-5.9,8.8-.84.59-1.4,1.01-2.54.82l1.52.28-.09,1.72-.4-.71-.61.28-.83-.85c-.52.22-1-.03-1.58-.01-.38,0-2.65.17-2.78.22-.07.03-.19.17-.16.21,1.33.43,2.63-.27,3.97,0-.23,1.2-2.19.55-3.26.56-.88.01-1.84.28-2.77.15.19.52.68.1,1,.17.16.03.27.26.51.26.14,0,.04-.22.15-.26.9-.32,2.43-.07,3.35.19.31-.24,2.98-.61,3.09-.51V-1.32ZM152.73-9.98c-.05-.25.35-.76-.04-.99-.12-.07-.46.12-.7.08-.83-.14-2.05-.87-2.88-.44-.31.16-.51.67-.57.71-.05.03-.74-.09-1.28.06s-.81.53-.86.54c-.18.01-.39-.14-.59-.11-.12.02-2.14.99-2.01,1.1.31.06.91,0,.8.43l-.48.14.86-.13.25.56c-2.12-.27-.52,1.48-.32,2.43-.48.08-.41-.46-.68-.67-.17-.14-.53-.2-.74-.33l.48,1.57c.32-.24,3.01-.02,2.53-.57-.58.5-1.33-.15-1.48-.74-.05-.22.08-.47.03-.59-.08-.22-.45-.19-.47-.32-.07-.57.59-.44.92-.6.55-.27,1.01-.73,1.63-.89l-.32-.21c.11-.21.46-.16.59-.25.15-.11.12-.43.37-.6.34-.23.88-.18,1.18-.76l.4.11-.08.43c.54-.26,1.45.11,1.51-.57h.15c-.06.54.22.1.61.07.29-.02.58.11.88.08l.1-.29c.35.07,0,.77,0,1.06-.04.88.04,1.77,0,2.65l.31-.28v1.86s1.75,0,1.75,0l-1.59-.14c-.18-1.43.31-2.69.88-4,.18-.24.18-.07.34-.03.84.24,1.32.57,1.88,1.17l-.08-.57.71.57c.27-.27-.44-.49-.4-.86-.09-.05-.39.27-.55.25-.05,0-.79-.41-.83-.44-.14-.11-.14-.4-.28-.53-.18-.16-1.04-.97-1.11-1-.49-.19-.07.93-.08,1.07,0,.25-.15,1-.23,1.23-.1.28-.34.26-.36.31-.11.22.09.56-.2.54v-1.64s.31.07.31.07c.1-.26-.24-.34-.28-.52ZM207.96,71.08c-2.81-1.84-6.4-3.97-9.38-5.57-.41-.22-2.02-1.18-2.37-.94,1.26,1.67,3.8,2.57,5.68,3.67,1.32.77,2.68,1.66,3.93,2.47.39.25,2.33,1.44,2.62,1.52.31.08.75-.13.79-.09.02.02-.02.3.16.5.16.17,2.73,1.63,2.94,1.65s.33-.02.24-.21-1.38-1.18-1.67-1.36c-.79-.49-1.87-.81-2.59-1.17-.07-.03-.14-.33-.35-.47ZM196.84,65c.74.21,1.56.7,2.21,1.08.44.26,1,.51,1.28.92-1.17-.47-2.6-1.17-3.49-2ZM126.35-26.88c-.09.05-1.4,1.08-1.65,1.27-.52.41-.95,1-1.39,1.36-1.45,1.18-2.95,2.3-4.37,3.51l-1.83-.16c.12.45,1.39,0,1.27.57-.77-.38-.32.25-.56.3h-.87s.48.35.48.35l-.48.21,1.43.29-.32.43.61.12c.13-.35.65-.8.74-.26.37-.28.65-.52.56-1l-.63.5c.46-1.32,1.59-2.35,2.85-3.08v.43s.46-.14.46-.14l.26.42h.32s.15-.27.15-.27l.4.13c.14-.37-.41-.37-.47-.44-.04-.05.42-.8.16-1.12l.95-.15-.17-.48c.45-.15.33-.51.57-.8.43-.53,1.91-1.28,1.98-1.86.9-.04.95-.63,1.31-.76.27-.1.82-.05.9-.11.04-.03.11-.51.33-.77.27-.31,1.01-.71,1.39-1.04.16-.14.45-.14.36-.46-.8.53-1.67,1.03-2.46,1.57-.31.22-.56.56-.88.78-.18.13-.98.34-1.08.53-.05.1.13.22.13.26-.14,0-.39-.16-.45-.12ZM174.65,5.79c-1.04.25-2.11-.06-2.58,1.04l.95-.14-.16.28,1.43.36h-.79c.13.53.75.28.95.64h-1.11c.17.37.74.38,1.11.43.04.24-.39.13-.47.37-.05.15.14.37.1.53-.05.24-.44.55-.27.95l-.79-.21c.15.27.59.38.74.53.09.09.32.41.61.68.79.74,1.48,1.6,2.45,2.15.29-.31-1.67-1.91-2.06-2.07.61-.32.66-1.2.47-1.79l-.55,1.14-.71-.51.47-1.2.63.14-.48-.86c2.03.3,4.13.5,6.03,1.24.2.08.38.36.63.42.17.04.39-.23.72-.24s1.31.47,1.2-.13l-9.69-2.58c-.03-.23.34-.16.52-.29.13-.09.48-.56.52-.57.47-.09.34.25.49.28.3.06.69-.03,1,0l-.48-.14.16-.35-.48-.08.63-.43c-.54-.12-.8.29-1.23.39ZM104.09,49.71c.04.45-.24.84-.48,1.22-2.11,3.4-5.22,7.11-7.61,10.46-1.71,2.39-4,4.56-5.88,6.98-.57.73-.95,1.73-1.89,2.24.05.84.42.56.83.1.49-.55,1.91-2.44,2.48-2.64.2-.07.43-.06.64-.07.2-.35-.32-.26-.33-.36-.03-.58.7-.59.77-.67.08-.09.01-.36.12-.54.06-.09.7-.56.87-.79.41-.55.65-1.17.94-1.73.9-1.78,3.51-4.36,4.81-6.1,1.76-2.35,3.18-4.88,4.61-7.22.09-.15,1.25-.66.12-.89ZM159.21-4.67l.31,1.35c-.3.3-.91-1.2-1.2-1.26-3.89.42-7.83.3-11.72.7-.62.06-1.49.59-1.92.13-.44.25.14.64-.4.93l.32.16v.41s-.88.5-.88.5c-.38.16-.34-1.08-.87-1.14l-.13.4.28.03v.28s-.31.06-.31.06l.47.65c-.67.07-.41.4-.3.84l.61.02-.16-.57.63.14v-.71s.4.28.4.28c.3-.71.33-.42.72-.57.03-.01-.18-.29-.14-.47.18-.7,1.3-.96,1.98-1.06.52-.07.71-.17.93-.2,2.38-.34,5.08-.08,7.41-.2.65-.03,1.1-.37,1.17-.36.12.01.39.24.67.25.29.01.55-.2.77-.19.87.05,1.09,1.21,1.83,1.51.31-.58-.08-.94-.17-1.5l.48-.5-.78.08ZM200.26,4.69c-2.37.24-4.03,1.42-6.36.78-1.96.23-3.73.15-5.68.06-2.96-.13-5.92-.11-8.92.16-.75.07-1.59.14-2.3.36.43.38,1.08-.02,1.52-.06.6-.05,1.34-.12,1.92-.14,2.61-.11,6.52-.37,9.03-.16.47.04.75.16,1.17.3l-.15.27h.64s-.32-.28-.32-.28c1.46-.2,2.99-.28,4.45,0l-.16.28c1.38.29,1.95-.79,3.16-1.06,1.26-.01,2.76-.19,4.01-.41.21-.04.77-.02.77-.24-.91.19-1.87.05-2.78.14ZM186.05,22.91c-.16-.05-.51-.2-.48.07,2.71,1.02,5.39,2.11,7.99,3.32.2.09.57.09.59.11.02.02-.19.29-.14.47.14.55,1.01.85,1.33,1.1,1.43,1.14,2.84,2.3,4.29,3.43l.24-.07-.47-.64c.19-.16,1.54.99,1.64,1.18.13.26-.08.52.02.67.14.21,3.41,2.97,3.9,3.36.21.17,1.92,1.48,2.07,1.35-.13-.37-.67-.94-.97-1.2-.99-.85-2.28-1.58-3.24-2.51-1.34-1.3-2.28-2.43-3.81-3.72-1.77-1.5-3.54-3.17-5.66-4.16-.24-.11-.77-.6-1.03-.68l-.29-.03-.11.26c-.29.11-5.01-2.08-5.84-2.33ZM157.38-21.47c-2.26,2.39-3.99,5.23-6.59,7.36.47.47,1.17.58,1.43,1.21l-1.27-.43.32.57c-.73-.32-1.34.3-.63.78.51.34,1.57.21,2.22.36l-.38-.27-.09-.29c.45-.29.65-.38,1.26-.3l-.6-.95.45-.56-.17-.48-.16.36-.47.07.32.28c-.68-.04-.19.83.16,1.07-.21.24-.77-.15-.86-.35l-.23-1.49c.7-.67,1.25-1.51,1.88-2.27.16-.2.48-.28.71-.55.69-.83.74-2.23,2.47-1.85.08-.06-.3-.91-.3-1.08,0-.07.23-.05.29-.17.08-.16.06-.36.16-.51.07-.11.3-.09.31-.1.11-.16-.1-.32-.23-.42ZM141.63-1.59l-.3-.02-.15.28-.57-.13.33.22-.17.49,1.04-.24.4.59-.48.3.47.93c-.5.08-.7.21-1.11-.14l-.17,1.2.48.37c-.76.29-1.09-.06-1.35-.71-.5-.08.07.45-.08.57-.08.07-.53-.14-.48.14.97.2,1.68.6,2.47,1.14h.22s.01-.28.01-.28l.47.43.16-.57-.47-.21.47-.07v-.71s-.4.14-.4.14l-.08-.28c.9.21.98-.62,1.52-.72.5-.09.47.6,1.02.36-.26-.45-.76-.83-1.33-.65l-.26-.35c0-.15.98-.24.79-.64h-1.27s.47.36.47.36l-.78.37c.37.32-.54,1.52-.81,1.27-.03-.42.49-.62.57-.77.04-.08.18-1.64.16-1.73-.04-.24-.43-.27-.53-.38-.04-.04.13-.4-.31-.52ZM169.86-.66c.02-.1.22-.53-.1-.51-.54.03-.54,2.64-.72,3.14-.54.52-.57-1.79-.55-2l-.35.27-.05,2.02-.17-.41h-.54c-.31.53.46.7.87.84l.16-1,.08.57.4-.14v.71s-.31-.28-.31-.28c0,1.03.5.15.55.14.54-.13.39.37.71.51.26.12.9-.34.79.49l-.63-.28.47.45-.15.41c.98-.32.47.06.66.25.08.08.44.07.6.18l-.08-.39-.21.09-.5-.77.79-.36c.25-.31-1.47-1.81-2.04-1.73-.22-.78.2-1.45.31-2.18ZM29.41,44.7c-3.19,2.02-5.98,4.26-8.94,6.43-2.16,1.59-5.31,3.49-7.17,5.19-.14.13-.28.36-.37.52.36.26,1.98-1.18,2.27-1.37.06-.04.42.11.45-.33l.46.13v-.57c.75.14.85-.33,1.18-.53,1.17-.71,2.75-1.91,3.73-2.85.6-.58.79-.56,1.52-1.06,2.47-1.7,4.49-3.76,7.23-5.22l1.59-1.35c-.66.24-1.36.63-1.94,1ZM173.17,17.06c-.42-.1-1.18-.98-1.74-.73l.95.72-.63.5c1.06-.14,1.81.24,2.7.64s1.56,1.07,2.52,1.24l.02.55c.55-.23.82.22,1.27.43l-.16-.71h.79s-2.08-.93-2.08-.93v-.5c-.96.45-1.28-.11-2.21-.29.48-1.32-.94-.8-1.44-.92ZM135.26-4.15c-.23-.05-.46.07-.6.05-.24-.03-.43-.51-.87-.37l.47.57h-1.27s.32.15.32.15l-.32.43c1-.17,1.42-.28,1.99.57.54-.79.36-.4,1.19-.28l-.16-.43c.41-.16.28.29.4.29.26-.01.36-.26.64-.29.38-.04,1,.32,1.26.27.19-.04.2-.43.55-.49l2.39-.06c.34-.45-.98-.24-1.17-.28-.15-.04-.09-.28-.11-.29-.05-.03-.85.22-1.16.29-.14.03-.12.27-.19.28-.33.08-.9-.72-1.35-.22l.32.14c-.21.31-.45.06-.79.07l.16-.28c-.7.21-1.08,0-1.71-.12ZM152.3,66.43c-.42.63-1.33,1.45-1.67,2.07-.16.3.03.14.17.14.3.01,1.14-.13.94.42l-1.41-.06c-.1.57-.6.98-.77,1.53-.27.85-.11,2.13-.36,3.04l.55-1.14.56.28-.64-1.35,1.04-1.79.31-.14,1.04.28c0-.38-.05-.78.07-1.16.1-.34.39-.17.41-.41-1.01-.12.26-1.06-.24-1.72ZM157.21-11.45c-.52-.38.08-2.76.54-3.25.02-.19-.31-.52-.53-.48-.15.03-.51,1.12-.49,1.21.02.13.24.26.25.43.02.32-.6.73-.15,1.22-.47.12-.36-.46-.48-.71l-.63.15c-.16.7.24.11.47.56-.53-.11-.46.25-.79.43l.08-.57c-.32-.39-.36.59-.88.29-.1-.06-.02-.72-.32-.71v.86s-.4-.28-.4-.28c0,.54.41,1.13.79.29.26.39.64.36,1.02.51.16.06.26.26.45.32.26.07.62-.04.81.06.06.03.55.97.59,1.11.08.3.05.62.2,1.11.11.37-.11.93.51.89-.65-.51,0-.76-.03-1.05s-.55-.77-.61-1.18c-.04-.29.21-.99.15-1.05-.02-.02-.39,0-.56-.14ZM141.26-36.62c-.52.19-1.17.18-1.43.71.47-.15.76-.34,1.27-.07-.16.42-.54.42-.73.55-.13.09-.17.28-.32.36-.29.16-.96.28-1,.32-.04.04,0,.89-.42.99-.71.17-.09-.53-.71-.43.56,1.22-.68.8-.78.86-.08.06-.09.51-.33.64s-.65.04-.96.13c-.39.11-.85.74-1.12-.05h-.22c-.09.23-1.12.63-.88.84l.57.14c-.18,1.05.32.08.42.04.19-.09.51.03.76-.1.16-.08.22-.41.52-.54.45-.19,1.6.38,1.81-.68l1.79-1.16-.15-.55c.6.06.82-.32,1.19-.58.16-.11.43-.1.51-.18l.2-1.25ZM181.61-57.85c-.74-.59-.42-1.03-.35-1.72.02-.16.14-.51-.14-.48-.19.56-.14,1.37-.33,1.89-.13.36-1.23.5-.62,1.25l-.63.22c.81.75.24,1.5.16,2.36.67-.68.72-1.88,1.19-2.72h1.51c.15-.59-.46-.53-.78-.79ZM131.41,45.85c-.07.27.17.34.32.5.79.86,1.54,1.25,2.27,2.18.08.1.5.29.59.54v.14s-.31.07-.31.07l.24.28c.34-.38.84-.35,1.31-.17.96.36,1.82,1.83,2.59,2.39.14.1,1.98.86,2.06.79-.09-.59-.1-.76-.8-.78-.15-.07-.01-.41-.23-.63-.18-.19-1.15-.93-1.35-.8l1.25,1.02-.22.48c-.14,0-.71-.37-.82-.48-.26-.25-.78-1.09-1.09-1.37-.29-.26-.77-.32-1.02-.65.04-.29,1.24.58.79,0l-.73-.35-.29.27c-.29-.36-.82-.2-1.1-.28s.15-.64-.41-.29l.63-.71-3.65-2.14ZM173.66,58.79c-.69-.57-2.04-.99-2.91-1.54-1.45-.92-2.46-2.39-4.24-2.83,1.55,1.15,3.34,2.93,5.08,3.79.26.13.78.14.92.25s.11.42.36.6c.11.08.73.26.79.22.04-.03.16-.36,0-.49ZM160.57.83c-.43-.04-1.57-.58-2.12-.68-1.1-.2-2.43-.3-3.53-.18l1.19.44c.26.07.22-.3.33-.31.18-.02,2.18.21,1.97.44l-.32.14c.37.23.66-.09.87-.09.25,0,1,.38,1.54.42.75.06,1.51-.33,2.19.04.33.17,2.99,2.69,2.71,2.92l-.94-.02-.03-.38c-.63.11-.68-.35-.81-.42-.18-.1-.62,0-.92-.1-.69-.22-2.13-1.27-2.69-.93l.08.29c-1.01-.17-1.55-.87-2.62-.36l.32.43c-.75.62-1.17.21-1.9-.07l-.16.64.64.22-.16.28,1.11-.15-.13-.26c.44-.08.62-.49.94-.65,1.27-.66,2.95.65,4.04,1.2l.08-.43c.56-.36,2.75.76,1.39.81-.33.01-.46-.16-.75.33.58.25,1.51-.26,1.8-.25.37,0,.81.48,1.13.4.56-.13-.32-1.28.09-1.72l.47.14v-.42s.64-.01.64-.01v-.43s-.79-.15-.79-.15l-.15.52-.62-.1-.02-.7-.41.41c-.78.03-.6-.38-.75-.52-.17-.17-1.17-.59-1.48-.89-.21-.2-.36-.44-.39-.72-.28-.05-.09.25-.2.39-.17.23-1.28.5-1.62.47ZM188.67,3.68c-.4.01-.75.25-1.13.28-1.31.12-2.55,0-3.8,0-1.53,0-3.54.58-5.23.31l-1.2.42c1.23-.19,2.49-.08,3.73-.14,1.75-.1,3.56-.26,5.26-.42,1.48-.13,2.09-.06,3.48.14.17.02,1.01.1,1.04-.15-.93.3-1.48-.46-2.14-.44ZM131.01,15.4l.08.29h-2.22c.12.14-.01.37.09.44.38.25,2.36.71,2.86.72.05,0,.76-.4.79-.43.05-.06-.26-.92.55-.87.03.6-.65,1.01.08,1.43l.87-.93-.57-.21.09-.43c-.92-.22-.97.38-1.68.56-.07,0-.07-.17-.13-.2-.26-.12-.53-.27-.81-.35ZM216.94,46.98c-.11-.2.09-.48-.16-.7-.45-.4-.96-.18-1.03-1.23-.27-.37-.42.06-.65.02-.21-.04-.73-.57-.78-.51l.63,1.37,3.1,2.49c.22-.1-.03-.42-.13-.53-.24-.26-.75-.5-.97-.91ZM158.09,4.9c-.42-1-.9-.48-1.51-.43-.49.04-1.07-.06-1.51,0-.98.11-1.43.57-2.34.75l-1.95,1.47.47.29c.08-.76,2.04-1.74,2.77-1.72l.25.29c.13-.7,1.94-.85,2.62-.86.04,0,.99.08.8.29-.29.28-.94.43-1.2.65-.22.18.07.72-1.11.5v.5s-.79.07-.79.07c.12.42,1.16-.08,1.27,0l-.32.43,1.11-.14-.63-.43c.46.13,1.1-.68,1.35-.67.14,0,.28.32.55.24l.16-.57h-.63s.63-.65.63-.65ZM180.81,21.05c-.33-.31-1.94-.48-2.31-1.07l.09.49-.33.22c.24.14,1.35.27,1.4.31.07.05.02.32.17.47.19.18,2.11.74,2.51.75.2,0,.33-.18.44-.19.31-.01,1.18.52,1.67.37l-1.11-.71h1.11c-.54-.21-1.1-.49-1.6-.76-.1-.06-.21.02-.15-.24-.38.15-.31.75-.02.95l-.22.34c-.36-.34-1.14.06-1.47-.32-.1-.11.02-.42-.19-.62ZM159.12-5.6s.36-.14.39-.21c-.24-.69-.78-.86-1.21-1.27-.62-.59-.57-1.08-1.72-1.09l1.98,2.43c-.34.1-.61-.28-.85-.26-.18.01-.41.23-.68.26-.44.05-.82-.15-1.25-.15-.16,0-.99.09-1.04.29h4.37ZM180.75,17.14c-1.14.8.89,1.92,1.4,2.57l.88-.02c0-.3-.75-.24-.79-.29-.06-.07.29-1.56-.79-1.14l.63-.71-1.33-.41ZM171.91,7.12l.16,1h-.63s.32.57.32.57c-.23.17-.77-.74-1.28-.37-.07.91-.99.15-1.1.94l-.47-.29c-.32.52.14,1.33-.48,1.5l.63.36c-.46-1.16.26-.87.49-1.08.17-.15.12-.45.16-.48.15-.13.65.14.76.11.07-.02.55-.76,1.28-.53-.05.45.69,1,1.13.77.35-.18-.35-.46-.16-.65.33-.33.27.48.48.21-.03-.75-.73-1.19-.32-1.93l-.95-.14ZM159.22-51.11c-1.59,1.08-3.24,2.22-4.46,3.63.29.04.5-.15.71-.29,1.1-.73,2.58-1.88,3.61-2.72.13-.11,1.05-.88.92-.99s-.64.27-.78.37ZM150.33-.05l-.02-.69c.5,0,1.14-.07,1.51.29l-.56.57c.71,0,.39-.22.48-.28.24-.17.45.53.95.28l-.48-.36.48-.36c-1.02.09-1.59-.71-2.84-.41l-.18,1.41h.79s-.32.43-.32.43l.62-.02c-.12-.63.59-.21.5-.69-.33,0-.64-.03-.93-.16ZM172,5.11c-.27.53-.84-.14-.72.43.36-.04.82.07,1.16,0,.13-.03.04-.26.34-.29.58-.07,1.54.25,1.84-.27l-.4-.15-.17.3-.71-.15c.42-.53-.35-.38-.32-1-.78.11-1.27.41-1.02,1.14ZM150.7,60.14l-.33.29-.38.06,2.38,2.22c-.04-.3-.06-1.19-.19-1.4-.06-.1-.52-.2-.7-.37-.24-.22-.42-.62-.77-.81ZM155.39-11.04c.07.21-.13.51-.11.66.01.08,1.21.99,1.39,1.1.17.1.23.15.46.1-.17-.29.02-.71,0-.91-.01-.1-.22-.08-.26-.16-.06-.12-.05-.52-.24-.61l-1.24-.17ZM211.77,41.63c-.13-.12-.45-.15-.62-.3-.19-.16-1.91-1.79-2.07-1.63l1.2,1.72c.76.24,1.05,1.05,1.97,1.28.04-.04-.42-1.02-.47-1.07ZM159.53-2.59c.07.55-.2.65-.64.92l.32.35c-.41.05-.94-.08-1.32,0-.12.03-.09.24-.22.28-.21.06-.56-.12-.52.14l1.27.29-.32-.57,1.9.14c.05-.3-.34-.65-.29-.91.05-.25.54-.33.44-.66h-.62ZM183.66-28.9c-1.1,1.16-1.82,2.74-2.54,4.14,1.2-1.14,1.79-2.74,2.54-4.14ZM161.73,5.02c-.35-.07-.79-.38-1.02-.41-.42-.05-1.17.18-1.67.07v1.29s.64,0,.64,0l-.48-.63c.66-.76.96-.16,1.52-.09.19.02.41-.12.6-.1.17.02.46.26.74.33.31.08.7-.19.8.2l-1.11.14h1.17s.26-.28.26-.28c-.07.38.4.29.72.38l.23-.38c-.59.26-.99-.47-1.14-.55-.1-.05-.89.1-1.25.03ZM143.8-4.6l-.24.44h-1.66s0,.42,0,.42c.31-.02,1.04.13,1.23.32.21.21.05.65.36.68l.32-1.86ZM145.87-.39c.36.46,1.03.39,1.58.5l-.3.16.14.41c.28.06.1-.22.17-.27.04-.03.35.15.54.13.26-.02.6-.18.77-.16.21.03.2.72.58.23l-.55-.64-.31.3-1.52-.3c-.12-.56.52-.12.8-.22.25-.09.5-.7,1.1-.49l.16.43v-.57c-.37,0-.76-.03-1.13.06-.32.08-.3.33-.33.34-.29.12-1.14-.82-1.72.1ZM12.69,57c-.55.56-1.48.81-2.05,1.16-.53.33-1.11.9-1.76,1.27-.75.42-1.82.72-2.45,1.22-.18.14-.39.22-.33.49.11.1,2.03-.98,2.31-1.14s1.08-.83,1.15-.85c.23-.08.74-.02.79-.05.55-.34,1.55-1.24,2.01-1.68.12-.11.38-.12.4-.14l-.08-.28ZM155.07,1.76c.88.18,1.89.21,1.59-.79h-.47s.16.43.16.43h-.64c.39-1.09-1.24-.36-.64.36ZM163.49,52.57c.19.43,2.46,1.88,2.7,1.71-.05-.12-.12-.29-.21-.38-.5-.5-1.74-1.23-2.49-1.33ZM167.31,15.27l-.17.42c.45-.14.59.35.67.39.32.14.9-.01,1.18.6.95.22.68-.63.26-.7-.28-.04-.55.17-.88.01-.13-.06-.57-.66-.63-.68-.14-.06-.28-.06-.43-.03ZM143.16,14.48l-.47-1.22c-.11.87,0,1.85.27,2.68.05.17.13.6.36.6l-.16-2.07ZM150.39,28.84c-.07-.03-.26-.04-.24.07.79.7,1.64,1.76,2.7,2.07-.31-.39-.95-1.09-1.32-1.38-.13-.1-1.07-.74-1.14-.76ZM205.04,3.7l-2,.55c.46.08.93-.17,1.36-.16.29,0,.21.27.34.3.28.06.92,0,.85-.35-.04-.2-.34-.09-.44-.14-.04-.02-.03-.21-.11-.21ZM182.55-66.63l-.77,3.23.14.77.64-4ZM138.72,7.55c-.09.09.89,1.66,1.04,1.85.07.09.23.26.23.05l.32-.26s-.47-.28-.57-.41c-.31-.39-.47-1.15-1.02-1.23ZM185.73,22.41c.08.21.58.41.79.5.86.35,1.82.61,2.7.93-.95-.67-2.34-1.04-3.49-1.43ZM137.92,20.41c.17.57.88.68,1.35,1,.13-.08.34-.29.24-.42-.07-.09-1.33-.73-1.59-.57ZM456.93,31.85c.88.15,1.58.44,2.45.44l.43-.58-1.02-.43,2.72.28-1.7-.85h1.52s.25.54.25.54l.6-.11-.51-.71c.58,0,.85.58.85,1l1.12-.85.75.5c.6.22.17-1.59.12-1.82-.18-.94-.17-.88-.19-1.76,0-.32-.66-2.1-.83-2.53-.06-.15-.27-.78-.31-.81-.25-.17-1.05.28-1.32-.82-.08-.34.74-.2,1-.34l.08-.43c.74.48.61,1.17.85,1.72.57,1.28,1.35,2.94,2,4.18.11.22.92,1.4,1.14,1.25l.09-.28.71.73.74-.16-1.5.59c0,.6-.11.6.48.98-.68.21-1.64.37-1.95.86h-.25c-.23-.99-.86.17-1.36-.36l1.19-.36-1.01-.57c-.08.28-.5.74-.83.6-.38.17.27.78.44.82.43.1.96-.06,1.4.29l.17-.29.17,1.14c-.78.14-.83-.35-1.87-.43,0-.04-.47-.62-.51-.64-.2-.12-.57-.07-.8-.18-.62-.3-1.07-1.02-1.74-.18l.85.14c-.99.14-2.08.32-3.06.07-.48-.12-.98-.52-1.36-.64ZM465.38,29.31c-.09-.08-.44-.23-.56-.04-.41.83.67,1.12.95,1.79.12.1.57.3.67.22.06-.05-.35-.6-.4-.66-.11-.13-.38-.16-.5-.38-.16-.28.13-.66-.15-.93ZM463.55,33.28c.02.16-.42.46-.34.71.16,0,.3.09.45.09,1.37.05,3.1-.32,4.38-.23.44.03.65.37,1.04.42s2.49-.15,2.62,0l-.17.43.59-.15c.42.52-.51.41-.42.86.49.04.86.72,1.2.92.25.14.64.05.84.3l-.51.21c.87.18,1.51-.3,2.43-.14l.29-.43h-.49s-.02-.72-.02-.72h.68s-.26-.43-.26-.43l.59.57c-.15-.34.19-.83.17-1.06,0-.08-.29-.06-.34-.18-.06-.18.05-.41-.09-.62-.07-.11-.41-.1-.44-.23-.05-.26.28-.5.31-.72.02-.18-.2-1.91-.46-1.63.26,1.16.51,2.64-1.36,2.57l.51-.5-1.53-.57c0-.11,1.32-.15,1.02-.79l-1.02.43.34-.57h-.92s-.1-.43-.1-.43c.56-.12.15.38.59.29l.09-.29.17.29c1.17-.6.82.1,1.09.29.11.07,1.06.48,1.12.43v-.57s-.51.14-.51.14l.17-1.29c-.3.05-.29.41-.58.58-.67.4-.59-.15-.71-.15-.24-.01-.47.32-.75-.07.48-.58.82-.27,1.43-.07l.26-.43c-1.56-.02-2.93-.61-4.59-.5,0-.22,3.69-.3,4.13-.39s.64-.54,1.14-.26c0-.28-.14-.51.34-.43l.15,1.48,1.19.24.02.84.65-.13.28.42.59-.29-.17.43,1.36-.28c-.75.64-1.98.18-2.21,1.28l.85-.14v.57s-.75-.28-.75-.28c-.65.26.03,1.05-.95.71.53.7-.42.69-.17,1.43.52-.39,1.44-.22,2.12-.15l.1-.41c.45.16,1.27-.68,1.18-.01l-.85.15.34.43-1.46.27-.24-.27c.05.33-.51.52-.81.39-.12-.05.15-.35-.55-.1l.81,1.15c.81.39,1.74-1.02,2.25.07-.7-.15-.8.1-1.28.22-.33.09-.79-.02-.91.38-.15.51.8,2.43.48,2.61-.76.06-1.21-.69-1.66-1-.25-.17-.61-.28-.89-.5-.45-.35-.51-.95-1.02-1.15s-1.03.14-1.43.07-.55-.39-.94-.43l.68-.14c.07-.24-.3-.06-.34-.24s.08-.45-.02-.6c-.03-.05-1.11-.43-1.26-.44-.39-.05-1.59.05-1.26.42.68-.45,1.89.26.7.3l-.19.99.51-.57.61,1.14,1.26-.43c.19.16-.74.81-.78,1.07-.04.27.13.41.41.25l.88,1.04-.35.14.86,1.29-.34.14,1.02.22c.33.26-.69.43-.75.43-.07,0-.89-.72-.61-.86-.44.16-1.83-.79-1.81-1.07l.45-.64c-.36.04-.39-.35-.61-.42-.15-.04-2.84-.03-3,0-.69.17-.25.66-.29.68-.34.06-.45-.27-.77-.29-.48-.03-.51.29-1.1-.14l.08-.28c.52.13.95-.24,1.37-.28.79-.08,2.21.34,3.13.14l-3.19-1.11c-.31-.13-.71.12-.95.08-.08-.01-1.42-.68-1.46-.76-.22-.48.54,0,.62.02.18.04.48-.05.64.03.24.13-.12.56.44.45v-.57s2.21.29,2.21.29c-.06-.26-.34-.26-.59-.29s-.91.15-.94-.14l2.72-.21c.1-.03.21-.1.06-.21-.27-.21-.36-.21-.48-.57-.14-.43.35-.35-.69-.73l.26-.21c-.97-.97-1.44.14-2.55.07l.51-.36c-.26-.5-1.71-.38-.68,0-.16.3-.69.29-.81.4-.58.54-.28.24-1.02.63-.39.21-.68.7-1.4.61-.05.63.96.26,1.36.29l-.34.21.34.21h-1.02s.34.43.34.43l-.68-.09c-.27-.38-.05-1.3-.5-1.2l2.8-1.71-.17-.28c-.17.32-.58.11-.72.17-.07.03-.1.39-.65.4-.65,0-.66-.93-1.26-.14l.51.14-3.06.57.34.43c-1.23.4-.37-.17-.51-.28-.71.17-.73-.75-1.27-.57-.79.26.78.95,1.08,1.23.57.53.57.6,1.27,1.02.12.07.31.04.46.04l-.34,1.14c-.37-.01-.79-.64-.89-.68-.25-.11-1.1-.02-1.49-.32.19-.6,1.48.05,1.36-.57-.69.08-.73-.28-1.04-.49-.13-.09-.42-.06-.47-.11-.1-.09.03-.43-.07-.66-.02-.04-.7-.48-.8-.68l.35-.15-.17-.4-.52-.09.51-.43-1.19.14-.17.71c-.25-1-1.5-1.85-2.47-2.42-.86-.51-1.37-.35-2.12-1.08-.87-.84-.48-.35-1.19-.72-.15-.08-.61-.69-.93-.92-4.71-3.42-10.68-6.29-15.7-9.51-2.1-1.35-4.21-2.75-6.13-4.28.29-.22.66.31.94.5.59.39,1.24.62,1.77.94,5.79,3.59,11.56,7.08,17.21,10.5.99.6,3.33,2.42,4.45,2.39.84-.02,1.65-.27,2.56-.25,1.09.02,2.43.33,3.48.57.04.26-.36.12-.55.1-1.78-.2-3.6-.69-5.4-.25l1.36.43-.16.41c1.05.39,2.13.5,3.22.87-.2-.04-.5.03-.75,0-.58-.1-1.23-.42-1.88-.42l-.09.29,3.01,1.84c2.02,0,4.34-.4,6.33-.26ZM477.31,31.71l-1.19-.57v1c.76-.38.37.4,1.19.28l-.34-.21.34-.5ZM461.48,33.46c-.84.04-2.25,0-2.94.1-.24.04-.45.12-.42.35.08.31,1.75.1,2.11.07.24-.02.4-.23.68-.26.17-.02,2.45.31,2.05-.16-.39-.28-1-.12-1.48-.1ZM462.19,33.99c-.36-.06-.62.18-.93.22-.15.02-.52-.14-.6-.07-.03.02.08.27-.11.44s-1.06.32-1.08.49c.39.47.75-.05,1.15-.17.33-.1.72-.08,1.05-.19l-.34-.28.85.14v-.57ZM476.46,36.71l-1.53.36c.07.24,1.2.99,1.53.93-.31.46.62.94,1.02,1.28-.03-.48-.26-1.09-.47-1.53-.2-.42-.73-.66-.54-1.04ZM472.69,39.59l-.65-.17-.34,1c.58.21,1.26-.58.99-.83ZM503.41,43.5c-.53.59.41.82.23,1.5.46-.22.63-.93,1.36-.72l-.17-.28h2.79s.78-.57.78-.57c.03.37.09.53-.35.65l.35.64c-2.11-.1-.46.52-.85,1.43h1.02s-.68-.57-.68-.57l.92-.15c.25.64.59.07.86.05.24-.02.79.56,1.27.38l-.84-.64.33-.36h-.68c.44-.5-.34-.75-.34-.8-.02-1.05.52-1.01,1.53-1.27-.52-.52-1.6.13-1.97.5l-1.43-.14-.11.41-1.25.02.25-.38c.17-.02.78.29.77-.04-.64.1-.63-.28-.68-.72l-.42.29c-.4-.16-.07-.86-.51-.71-.66.22-.05.96-.77,1.22-.49.18-.6-.21-.9-.2-.15,0-.44.19-.62.26l.11.22ZM502.78,44.93c-.14-.07.1-.63-.49-.87-.16-.06-.58.43-.68,0-.12-.54,1.1-1.19,1.27-.5.13-.11.26-.22.43-.29l-.51-.14c.96-.55.53-1.06-.51-1.14l.85.43c.25.22-2.62.84-2.89.71l.6.43-.09.43-1.25-.26c-.41.14-.11.66-.53.54-.08-.02-.33-.16-.14-.28.09-.06.39.06.14-.29-.21-.3-.35.11-.51.11-.69-.2-.18-1.01-.34-1.25-.45-.35-.57.26-.6.28-.5.28-.08-.37-.5-.43-.11.35.51,1.15.14,1.41-.14.1-.53-.11-.48.16l1.19.43c-.36.32-.34.62-.15,1.03.06.14.31.14.33.18.23.6-.65.29-.67.12l.08-.34h-.6c.17-.59-.46-.28-.54-.69l-.31-.02-.26.43-.59-.36.51.07v-.43s.68.14.68.14v-.43c-.42.12-.96-.11-1.1-.43-.14,0-.16.57-.59.43-.08-.33-.44-.63-.84-.57v-.42s.58.29.58.29l.43-.5-.48-.1c.06-.8-.74-.82-.7-1.55.28.22.67.5.92.72.32.28.5.42.79.66.34.28.14.81,1.01.62l-.02-.71c-.77.06-.68-.36.05-.4.49-.03.91-.19,1.07-.19.08,0,.09.23.12.25.84.39.68-.91.13-1.03.83-.25.42-.67.52-.98.03-.1.24-.09.27-.13.04-.06-.11-.2-.07-.23.09-.08.37.08.3-.16-.47-.05-1.38.06-1.7.36-.19.18-.14.46-.18.5-.05.05-.52-.22-.67.07.52.2.84-.03.85.64l-2.04.14.17.36-.42.07.08-1-1.02.14c-.09-.27.74,0,.51-.35-.14-.21-.71-.14-.53-.78h-.49s.17-.44.17-.44l-1.19.29c-.2.56,1.06.28.85.64l-1.19.57,1.02.07v.71s-1.53,0-1.53,0c-.16-.37.25-.25.29-.31.21-.32.14-.87-.46-.68-.17.04.72.26.08.43-.31.08-.23-.18-.33-.29l-.43.15.17.28c-.69-.4-.93.66-.59,1,.16.16.79.39.93.07.22-.49-.92.16-.68-.28l.51-.14-.33-.43.5-.21.17.86.85-.14-.51.43.69.52-.18.62c.71-.22.86.49,1.12.54.15.03.43-.16.58-.06s.15.43.33.59c.24.2.79.15,1.02.43l-.34.5c.55-.08.98.14,1.47.24.37.07.79.03,1.3.33.16.1.33.42.63.5l-1.19.22.33.15-.16.42c.72.07.87.72,1.53.14l-.34.57c.81.19.89-.79,1.53-.5-.9,1.19-2.28.31-3.57.65-.14.51.68.26,1.01.2l.35.16c-.51.11-.12.27-.34.68-.29.54-.98.35-1.53.25l.43.28c.37.36-1,.17-1.15.14-.21-.05.01-.4-.64-.13l.51.86-1.02-.43.34.57-.51.29c-.45-.11-.2-.57-.34-.86l-.68.14c0-.26.04-.63-.34-.72.16.89-.54.63-1.06.86-.28.12-.41.54-1.15.43l.17-.71-.77-.14-.12.53-.31.12.18.34c-.59.2-.68-.25-.8-.28-.19-.04-.43.04-.61,0-.15-.03-.11-.48-.96-.13-.14.51.35.59.46.74s.01.4.13.54c.11.13.77.16.86.71l.25-.86.51.57c-.12-.48-.28-.77.51-.71l-.34.86c1-.29.5-.04.73.23.11.13.44.23.54.48l.19-.3,1.76.15-.17-.28.43-.15.19.29h.57c-.42-.81.05-.86.6-1.43l.36.42.98-.15.27.3c-.13-1.12,1.21-.73.77-.14-.24.33-1.08.09-.94.56l.84.14.52-1c.4.74-.66,1.02-.51,1.71l1.36.14-.17-.28c.72-.02,1.12-.91,2.04-.43l-.5-.5.51-.22-.34-.28c.73-.17,1.05.02.68-.72l-.51.15c-.08-.13,0-.45-.04-.51-.06-.13-.37.03-.3-.21l.85.14c-.42-1.32.78-1.09.99-1.31.1-.1-.05-.45.19-.63.1-.07.55.03.78-.03.25-.07.29-.43.75-.32-.2-.42-.93.06-1.24.1-.62.08-1.19-.32-1.81-.24l.17-.57c.5.39,1.06.29,1.7.28.02-.27-.41-.08-.68-.21-.12-.06-.62-.71-.51-.78h.68c.18-.56-.44-.27-.34-.71.08-.06,1.11.31,1.19-.14h-1.19s.34-.29.34-.29l-.34-.22.34-.64-.76.28c-.34-.2-.21-.3-.08-.57l-.68.14-.17-.57c.8-.46,1.14.21,1.86-.29.04.03.1,1.2.43.43l.43.72.43-.13.15.26c.35-.12.6-.11.95-.27l-.87-.07ZM508.31,78.73c-.28.56-1.86.54-2.51.58l-.28-.37.67-.07-.34-.21.58-.8c.57-.37,1.39.19,1.97-.27.38.32-1.48.82-1.7.86.11.35.86-.08,1.13-.1.19-.02.34.1.39.1,0-.09,0-.19,0-.29h.51s-.51-1.43-.51-1.43l-.85.14.51-.43c-.67-.02-1.12.26-1.7-.14l-.15.56.32.16h-.51s.34.29.34.29c-.14,0-.34.05-.42.15-.5.61-.88,1.94-1.28,2.64-.93,1.61-2.49,3.67-3.69,5.18-.19.24-.55.35-.63.47-.18.26.03.65-.35.85-.57.1-.87-1.36-1.45-1.64-.24-.11-.61-.11-.91-.24-1.56-.67-3.04-1.47-4.67-2l.15-.98h-.51s.17.43.17.43c-1.28-.06-3.11-.16-3.66-1.27-.77.25-1.49-.24-2.21.26-.35.43.76.91-.85,1.14-.3.04-.61.01-.92.01l1.36-.35c.42-.56.14-.94-.43-.36-.14,0-.17-.61-.84-.43-.17.04-.07.65-.52.58-.39-.06-.05-.52-.09-.57-.02-.03-.21.09-.34.05-.17-.05-.23-.27-.51-.19.61.55.94,1.12.51,1.86.16.02.36-.02.51,0-.05.3,0,.68,0,1-.06,0-.16-.12-.25-.12l-.18.11c.02.43-.47,1.18.09,1.22v.36s-.34-.14-.34-.14v3.19c-.02.12-.36.16-.49.33-.56.69.21.64.31.88.27.59.13,2.05-.85,2.11-.05.84.91.53,1.02,1.29l-.33.2c.85.11.18.54.18.79,0,.28.57,1.25.67.58.12-.83-.21-1.77.17-2.57l-.51.21c-.19-.92-.12-1.57.18-2.46.04-.11.3-.1.32-.2.08-.35-.29-1.68-.28-2.19.03-1.16.25-2.34.29-3.58.11,0,.23,0,.34,0v-.57c.45.07.9.18,1.36.22.84.08-.07-.49-.12-.5-.52-.1-.83.11-1.16.12-.08,0,.04-.2-.41-.27.02-.11.2-.27.18-.43.26.08,1.59.31,1.75.25.35-.13.56-.79,1.07-.93.24-.06,1.81.23,2.1.31,1.19.36,2.29,1.28,3.42,1.84,2.01.99,4.13,1.81,6.09,2.88.34.18.43.72,1.18.64l5.14-7.84c1.06.05,2.45-.17,3.28-.73.42.35.44.89.61,1.32.11.29.12.42.22.68.43,1.14.9,2.44,1.42,3.54.1.22-.1.39.38.31-.42-.99-.73-2.1-.94-3.14-.08-.41-.47-2.43-.4-2.63.06-.16.38-.19.5-.34,1.03-1.33,1.82-2.17,3.05-3.4.35-.35.91-.37.86-1.06l-.68-.15-.2.76-.82.67c.23-.75.46-2.72,1.76-2.43.14.03.09.27.19.27l.43-.13-.17.43,1.51.31.02.41c.67-.37.34.27,1.01.14l.18-.71c-.58.51-.71.03-1.36,0,.41-.68-.37-.56-1.02-.43.51-.4.05-.47.08-.72.01-.12.23-1.01.6-.85l-.06.43.23.14c-.35-.03-.38.05-.34.35l1.11.65.16-.29c.74.32,1.22.69,1.28,1.43-.57-.24-.41,0-.85.21l1.87.21-.82-1.38c-.02-1-.24-2.29-1.4-2.71l-1.17-2.76.68,3.29.17-.43c.21-.24.58,1.48.68,1.57l.33-.14v.43s-.43.11-.43.11c-.71-.23-.35-.76-.45-1.01-.08-.2-.54-.22-.49-.52l-.17.28-.75-.29-.78.66.17.49c-1.1-.28-.77-.05-1.22.26-.07.05-.54-.15-.71-.08-.16.06-.54.56-.95.61l.51-.07v.43s-1.54.06-1.54.06c-.27.63-.32,1.43-.93,1.93-.34.28-.83.23-.92.65-.03.14-.13.91.17.93-.27-1.18.85-.57,1.53-1.21-1.43.15-.39-.29-.18-.61.26-.43.54-.99.71-1.45h.67s-.34.28-.34.28l.25.28.42-.28c-.27.53-.39,1.14-.64,1.67s-1.01,2.08-1.31,2.49c-.1.14-.35,0-.4.02-.12.08-.3.64-.37.82l-.17-.57-.51.43-.17-.71c-.07-.05-.51.14-.68.14,0,.05.16.13.08.29ZM483.09,48.57c1.23-.08,2.3.73,3.57.43-.07.27-1,.53-1.28.57-.4.06-.25-.54-.75-.43-.76.99-.47,1.14.62,1.7l.82-.42.59.43-.85.35.36.16-.19.56.17.15c.65-.13.83.93-.17.64l.34-.28c-.82-.27-1.15-1.16-2.04-1.5-.03-.04.97-.17-.17-.5l-.11.44c-.9,0-2.05.57-2.28-.51l.34.07v-.43c.82-.17.82.79,1.36.21-.28-.41-1.58-.73-1.78-.93-.54-.53.32-1.17-1.63-.77l-.32-.6-.86.09c.88.6-.01.93,0,1.71l-.66-.13c-.06.15-.12.31-.27.42-.8.55-1.82.92-2.55,1.57l.08-.29-.34-.14.34-.29c-.84-.18-1.43.06-2.21.28.01-.56.66-.62,1.19-.57l-.92-.58c-2.31.12-4.63.07-6.93.2-.77.04-2.71.46-3.28.37-.35-.06-.66-.38-.85-.36-.9.07-1.51.44-2.26.62-2.29.57-4.57.23-6.92.32-2.04.08-4.77.24-6.79.43-.77.07-1.9.49-2.57.53-.53.03-1.27-.23-1.85-.25-2.9-.09-6.26.06-9.17.12l-5.35-.26c-.04-.25.39-.13.59-.14,1.92-.06,3.84.09,5.75.09,2.75,0,5.44-.09,8.19-.1,2.45,0,4.34-.23,6.79-.39,2.92-.19,6.05-.06,9-.32,1.54-.13,3.24-.89,4.57-.81,2.13.13,4.03.09,6.16-.15.35-.04.78-.29.83-.29.14,0,.32.39.85.41.11,0,.61-.48,1.17-.45l.18.3c.24,0,.46-.23.7-.25.7-.07,1.06.51,1.68-.18l.27.4h.39c.29-.68,1.06-.71,1.29-1.26-.64.25-1.21.06-1.79.07-.06,0-1.06.43-.92-.26.06-.3.68-.49,1-.52v.57c.29.07.08-.28.27-.29.55-.03.66.43,1.09.44v-.86s-1.01.28-1.01.28l-.69-.85c.04.34-.14.31-.51.28.39-.77-.14-.97-1.02-1l.09.57c-.46-.41-1.1-.22-1.66-.32-.1-.02-1.3-.26-.97-.54.02-.01.5-.18.49-.04.21.33,1.08.18,1.55.32l-.34-.28.17-.29,3.74.86-.09-.58.52-.28.09.28h.33c.09-.5.73-.26.34-.85.08-.06,1.07.26,1.14.32.14.13.08.43.2.59.13.17.55.08.7.31h-.85s1.1.59,1.1.59l1.44-.24v-.71s.17.57.17.57c.27.02.22-.3.41-.44.38-.27.5,0,.77.22-.94.45.05,1.21.66,1.6.46.29.33.04.7.48-.46.03-.43.25-.68.57,1.27-.2.61-.06.88.25.24.28.82.04.82-.32-.39-.32-.68-.1-1.02-.5ZM481.22,46.85l-1.53.29.16.42-.33.15.48.12c.14-.55.67-.41,1.22-.41v-.57ZM477.48,47.57l-.93-.43c-.44.36.05.87-.43,1.35l2.21.79-.35-.78.35-.14c-.4-.8-.63-.14-1.19-.57l.34-.21ZM387.95-8.31c.06.36,1,.83,1.41,1.03,2.71,1.31,5.41,2.48,7.99,4,.76.45,2.6,1.47,3.16,1.91.26.21.32.61.36.63.14.08.54-.18.83-.07.4.14,2.14,1.51,2.73,1.85,4.11,2.39,8.35,4.48,12.06,7.29l6.27,3.65c.18-.14-2.53-1.85-2.75-2.01-4.81-3.47-9.83-6.68-15.27-9.48-2.22-1.14-4.37-2.63-6.59-3.9-1.03-.59-2-1.16-2.98-1.76-.74-.46-2.91-1.44-3.88-1.95-.49-.25-2.95-1.49-3.34-1.19ZM480.2,32.78l.66-.02.34.16c-.51,1.04.11.29.52.79h-.85c.25.54,1.16,0,1.7,0,.07.48-.53.24-.82.67-.17.24-.11.51-.1.77l-.61.14.32,1.12-1,.31.59.57.09-.42h1.01s.16-1.37.16-1.37l1.7-.28-.68-.22c.18-.64,2.27-.28,2.48,0l-.27,1c.68.08.24-.51.51-.65.57.27.56-.54.93-.05.09.11.09.28.09.42l.85-.14c.14.05-1.4.66-.6.57.99-.11,1.98-.22,2.97-.29l-1.53-.57,1.19-.15-.17-.43c.13-.09,1.73-.06,1.87-.47l.67-.1-1.36-.14.17.28h-.51s.17-.28.17-.28c-.61.14-1.6-.15-2.1-.1-.26.02-.45.24-.86.24-.64,0-.65-.5-.88-.55-.35-.08-1.94.16-2.5.12-.98-.08-1.91-.39-2.83-.63l-.17-.15.34-.36c-.53-.05-1.33-.37-1.53.21ZM460.15,46.43c.5-.3.97.21,1.53.14l-.16-.62.84-.23c-.1-.28-.17-.46.17-.64l-.67-.29.51-.5-.51-.29c.28.09.34-.3.43-.29.1,0,.96.54.93.08-.02-.22-1.06-.12-1.02-.64l.47-.1.07.22.45-.09.03.25h.25s.51-.71.51-.71l.25.28.33-1.27c-1.13,0-1.47-1.24-.25-.44l.77-.57c-.09-.32-.53-.28-.85-.28l.51-.43c-.22-.01-.47.13-.69.06-.29-.09-1.35-.85-1.64-.89s-.64-.09-.91.04c-.36.18-.15.72-.5.79l.51-1.47.42-.1c.31.73,1.07.5,1.44.63s.79.42,1.21.57c.26.09,1.1.17,1.17.23.18.16-.07.37-.34.29l.35.22-.35.78c.6.04.6-.49,1.36-.28l-.17.43-.34-.28c.12.41-.82.92-1.18.87l-.02.41-.34-.15c.44.65-.86,1.05-1.02,1.36-.18.34,1.13.4,1.36.57.68.48-.24.95-.85.65.33.69-.17.7-.33.97-.12.2-.1.61-.22.72-.58.49-1.33-.03-1.71.03-.07.01-.6.45-.29.57l-1.02.15c-.1.4.18.28.51.28l-.16.27.41.16.16-.29.75.44-.41.56.17.29,2.97-.07c-.63.58-1.54.15-2.11.21-.22.02-.39.23-.52.23-.26.02-1.15-.49-1.78-.09-.16-.15.57-.99-.17-.86l-.26.71-.42-.36c.83-.32.49-.71.5-1.28,0-.21.19-.43.19-.57,0-.09-.51-.04-.35-.37-.1.07-.48.07-.6.29-.13.02-.11-.14-.08-.21.14-.37,1.36-2.03,1.35-2.15-.03-.45-1.05.23-.85-.36h.67s.1-.44.1-.44h.93s0,.44,0,.44l-.47.03-1.04,1.97.32.08c-.28-.02-.32.34-.34.36ZM464.06,44.43l-1.19-.29c-.06.06.43.64-.26.45l-.08.26,1.02.43v-.71s.43.14.43.14l.08-.28ZM313.55,49.86l.25.73c8.69.35,17.44.24,26.18.28.93,0,1.57.16,2.38.14.9-.02,1.76-.34,2.7-.03l.44-.48-30.5-.21-1.1-.15.17-.28h-.51ZM503.81,71.58l.34.28-.47.08.1.19-3.26,1.58c-.24.75-.44.37-.88.56-1.75.77-3.52,2.3-5.23,3.19-.69.21-.81-.1-1.4-.31l-.24.28v-.57s-.75.14-.75.14l-.07.28,1.17.94c.35,1.01,1.13,1.48,1.86,2.22-.35-.56.51-.6.68-1.14h-.68c.14.22.11.43-.25.43l-.26-.43-.33.28c-.48-.78.24-.62.35-1.28l.63.11c.49-.47,1.06-1.36,1.56-1.76.38-.31,1.06-.55,1.52-.87.16-.11.16-.33.18-.34.44-.32.21.73.93.57.58-.13-.13-.82-.08-.85l.68.14-.1-.43c.96-.1.62-.33.89-.58.12-.1,2.51-1.31,2.83-1.45.55-.24.78-.07,1.03-.12.13-.03.11-.28.18-.28.23.01.89.38,1.24.4.4.03.58-.2.81-.21.3-.01.65.32.94.17l.14-.49-.9-.3c-.36.66-.84.42-.26-.14-.58-.2-.99-.1-1.53.14l.17-.43h-1.53ZM420.33,88.15l-.44-.92,2.72-.36-.34-.21.51-.79c-.39,0-.71.14-1.11.16-.63.03-.65-.41-1.02.27l-.25-.28c-.26.64-1.18,1.05-.72,1.81.63,1.04,2.26-.2,3.43.33.01-.09-.01-.19,0-.29,2.3-.08,3.42-.81,5.43-1.36,2.83-.77,6.68-1.45,9.65-2.03,6.66-1.31,13.43-2.28,20.18-3.17,2.26-.3,7.64-1.02,9.67-.32.29.1.56.4.7.42.76.12,1.56-1.13-.11-.41v-1s-1.19,0-1.19,0l.51.57c-1.13-.11-2.13-.37-3.3-.28-.27.02-.45.26-.66.25-.3-.02-.68-.44-1.03-.56-.45-.15-1.35-.28-1.63.15l.85.15c.16.17-1.89.64-2.16.68-3.28.46-6.68.71-9.96,1.19-7.08,1.04-14.1,2.69-21.06,3.83-.13.02-.09.28-.21.29-1.5.1-2.51.99-3.78,1.22-.4.07-1.33-.14-1.88.08-.05.09,0,.19,0,.27-1.01.03-1.73-.25-2.79.28ZM471.24,53.39c-.42.2-.33.64-1.06.46l.34.43c-.64-.14-2.17.76-2.46,1.15-.1.14.09.32-.08.49-1.1,1.07-3.61,2.31-4.97,3.5-.14.12-.24.27-.3.43.28.21,1.34-.86,1.54-.94.31-.12.61.09.66.06.15-.08.76-1.11,1.55-.99l-.17-.43c.65-.11,1.62-.2,2.21-.35.55-.14.94-.57,1.45-.78.48-.19,1.1-.19,1.6-.44l-.34-.22c-.57.61-1.61.13-2.14.94l-1.43-.43c.23-.08,1.25-.26,1.33-.32.05-.04.12-.79.71-.47l-.34.5s.93-.17,1.02-.21c.54-.23-.41-.19-.09-.36.55-.12.66-.57,1.28-.43.12-.46-.37-.14-.68-.29v-.42c.46.14,2.06-1.16,1.87-1.3-.06-.04-1.33.31-1.49.39ZM470.34,74.23l-.5-.5-.68,2.23.5.63-.68-.14c0,.41-.43.85.08,1.14.54-.39.96-.13.75-.92l.52-.08-.68-.5.51-.57-.34-.14c-.07-.59.16-.21.3-.26,1.31-.48,2.11-.58,3.62-.3,2.55.49,4.42,1.35,6.73,2.31.56.23.94.62,1.75.6l-.17.28h1.02c.32-.23-1.62-1.16-1.83-1.24-.93-.4-1.7-.64-2.75-.62-.18-.55.44-.27.34-.71l-2.3-.71-.08.28c-.3.13-1.88-.2-2.21-.35-.56-.26.55-.29.51-.5l-1.36-.14.34.28c-.91.4-1.97-.94-2.72-.07l.34.21h-1.02s.34.29.34.29l-.85-.28.51-.22ZM494.64,58.58l.34.71s-.77-.61-.66-.09c.14.66.51.95,1.08,1.38.32-.14-1.19-1.21-.34-1.14.11,0,.18.3.31.38.15.09.38.08.54.19.46.32,1.36,1.18,1.28,1.72l1.1-.12c.3.1.04.3.19.41.47.38,2.33.99,2.63,1.34.27.33.07.57.16.83.02.06.86.68.94.67l.34-.43c.6.21.89.99,1.11,1.08s.73-.14.98.1l.21.68c.36-.19.28-.54.85-.43-.05-.27-.57-.2-.83-.37-1.34-.84-2.8-1.96-4.1-2.84-.5-.34-1.12-.36-1.35-1.01l.51-.5-.51-.07.68-.64c-.89-.34-.87,0-1.53.29l.51.28-.43.57c-.33-.15-.17-.53-.29-.68-.09-.11-2.18-1.21-2.55-1.47-.3-.21-.76-.54-.82-.85h-.34ZM473.06,30.56l-1.02.43.85.28c-.61-.02-1.16-.01-1.74.16-.12.03-.12.24-.24.27s-2.22-.18-2.26.22c.19.72,1.54.14,1.02.93l.68-.43-.08.43,1.44-.14v.43c-1.03-.02-2.96.66-3.48-.28-.32.13-.05.46-.16.57-.23.24-.78.12-1.12.14l.68-.43-1.62.43c-.65.01-.42-.85-.09-1.08.77.32.78-.41,1.32-.47.47-.06.56.89,1.24.69l-.34-.85,1.7-.79-.85.07v-.57s1.36.14,1.36.14l-.08-.28-.77-.14,3.57.29ZM471.87,30.7c-.7-.11-1.31.21-1.87.57.36.04.67,0,1.02-.07.18-.03,1-.19.85-.5ZM474.8,80.4c-.66.19-1.42-.01-1.57.61l1.7.14-.17-.43c.97.14,2.19-.04,3.1-.32.33-.1.51-.5.98-.39l.08.42c.78-.6,2.17-.1,3.14-.43.03.48-.47.68-.85.93.58,1.03.87-.28,1.11-.36.11.42.68.19,1.1.28-.08-.24-.9-.62-.99-.75-.07-.1.14-.3.07-.4-.34-.45-2.29-.08-2.7-.14-.12-.02-.1-.22-.15-.25-.58-.29-4.07.83-4.84,1.06ZM489.13,55.58c-.44.67-.24,1.3-1.2,1.71l-.25-.28c-.25,1.02-1.02,1.86-1.58,2.76-.13.21.04.45,0,.5-.03.05-.87.7-.93.72-1,.25-.91-.3-1.11-.51-.13-.14-.51-.09-.61-.21-.08-.09-.04-.4-.19-.62-.44-.63-1.09-1.21-1.63-1.78l-.17.29c-.3-.38-.19-.47-.77-.35-.24-.12-.04-.41-.13-.61-.25-.56-1.11-.6-.89-.26.16.25.93.13.68.5-.05.08-.79-.49-.51.43-.38-.02-.3-.54-.34-.57-.05-.04-.87.31-1.19-.14.03.31.33.49-.09.71l-.51-.29-.17.29-.25-.47-.51-.1v.86s.34-.28.34-.28l.09.43,3.31-.43v.86c.33.03.71,0,1.02.1.27.08,1.39.78,1.48.94.11.18,0,.45.13.68.18.34.78.33.43,1l.51-.14.34.86c-.08-.45.43-.22.81-.33.27-.08.76-1.03.94-1.2.23-.21,1.02-.41,1.1-.5.1-.12.06-.5.22-.74.37-.58,1.01-.9.83-1.66h.85c.08-.57-.73.02-.51-.71l.51.14-.17-.86.51.29-.34-.57.68.14c-.06-.23-.24-.35-.44-.5-.1-.07-.09-.42-.32-.07ZM483.43,53.43l-.02.56-1.51.16c.02.28.61.19.77.42.07.1-.11.27-.05.4.02.05.31.04.4.46.07.34-.12.66.07,1.01.28.06.11-.18.19-.25.04-.03.55.07.73.03.31-.07.51-.34.85-.36l.26.28c-.74-.08-.11.6.17.43.09-.34.45-.5.17-.86.71,0,1.11.18,1.45-.41,1.08.16.58.11.62.48.03.22.12.42.14.64l.84-.21-.34-.57.33-.21.17.28.34-.57c-.39-.19-1.29-.05-1.19-.43l-.76.29c-.19-.6-.42-.08-.68-.07-1.18.05-2.25-.6-3.32-.08l-.17-.71h1.53c-.11-.68-.07-.79-1.02-.72ZM495.74,60.72l.25,1c-.5.04-.52-.46-.85-.65-.13-.07-.55-.19-.51.07,1.9,1.01,2.98,2.67,4.67,3.86.17.12.23.35.34.43.28.2.59.09.73.17.13.07.09.39.24.51s.5.1.61.2c.03.03-.16.24.1.41.51.33,1.16.53,1.8.57-.38.98.71.43,1.19.79.22.16.12.72,0,.93h.85c.06.28-.46,0-.34.36.05.16.41,0,.34.14l-.68.22c.11.46.63.37.51,1l1.27-.86c.13.45.9.05.94.71l.51-.36c-.99-.61-1.98-1.3-2.88-2.01-1.04-.82-2.06-1.27-3.15-2.07-.29-.21-.49-.59-.85-.86-.96-.73-2.32-1.41-2.81-2.42l-.34.28c.01-.49-.48-.75-.76-1.16-.1-.16-.04-.44-.13-.53-.07-.07-.95-.26-1.07-.74ZM481.13,72.15c-.27,0-.88-.78-1.09-.94s-.53-.17-.68-.28c-.19-.14-.63-.91-.94-1.06-.51-.26.19.5-.33.42-1.23-.19-2.69-.98-4.24-.98-.82,0-.99.41-1.05.42-.38.04-.64-.36-1-.29l-.26.22c.77.2-.03.17-.17.5l1.25.15.45-.73c.51.28.95.28,1.52.14v.43c.86-.25,1.31-.17,2.09.15.54.22.23.07.8.2,1.32.3,3.72,2.46,4.46,3.41.29.38,1.73,2.62,1.67,2.88l-.35.08c.27.55.86.05.85-.43l.68.07c-.26-.22-.03-.48-.5-.21.04-.65-.55-.49-.85-.8-.18-.19-.06-.7-.19-.94-.06-.13-.32-.18-.45-.38-.19-.28-.03-.52-.56-.67v-.35s.52.29.52.29v-.57c-.28.08-.73.22-.85-.14h2.04s0,.57,0,.57l.34-.28c-.11.6,1.17.86,1.7,1.14l-.68-.93c-.21-.2.71-.26.17-.43-.49-.15-1.33-.16-1.87-.21l1.36-.43h-3.82ZM489.95,74.6c-.97-.29-1.63.88-1.42,1.56.3.1.45-.26.59-.25.16,0,.34.36.53.39.08.01,1.4-.6,1.42.15-.49,0-2.02-.08-2.3.28-.14.18-.04.51-.24.8-.39.56-1,.84-1.46,1.2-.78.6-.29.98.35,1.43l-.1-.92c1.03-.18.74-.59,1-1.04.15-.25.4-.54.58-.81.07-.11-.03-.31,0-.35.44-.47,1.05-.3,1.56-.31.53-.01.76-.32,1.28.14.23-.21-.86-.93-.96-1.05-.22-.26-.62-1.16-.85-1.22ZM470.69,42.28c.41.84-.45.39-.51.43l.34.43h-.85s1.36.43,1.36.43l-.34.63,1.01.37-.51.57,1.18.28c.23-.81.97-.58.69.15.42.07.28-.06.42-.29l.94.29c-.13-.26-1.26-.93-1.32-1.03-.19-.28.08-1.08-.8-1.4l-.51.57-.91-.6c-.06-.1.06-.38.13-.46.2-.2.65.09.52-.37h-.85ZM478.5,42.57l-.02.7h-1.34c-.08.42.1.25.39.32.38.08.7.19,1.06,0l.15.27,1.12-.28-.16.37.32.06c-.24.44-.72.42-1.19.29-.05.04.75.98-.08,1,.04-.44.05-.82-.28-1.2-.56-.64-.67.54-1.13.84.4.61,1.31.49,2,.64.11-.41.14-.64-.17-1l1.12-.14c.04-.44-.31-.9.24-1.22-.29-.06-.83-.58-.89-.6-.34-.12-.79,0-1.15-.04ZM501.69,89.73c-.2.36.43.83.63,1.19.18.33.18.84.4,1.09s.74.24,1,.58c.22.29.2.86.3.96.06.06.51.08.82.38.41.4,1.32,1.54,1.6,1.94.13.19.05.44.13.54.08.11,1.39.51,1.67.31.02-.19-.02-.37-.12-.54-.36-.65-1.72-1.39-2.26-1.95-.29-.3-.37-.78-.84-.93.12.41-.43.31-.64.1-.27-.28-.02-.71-.08-.88-.1-.27-1.18-.69-.64-1.22-1.08-.12-1.31-1.02-1.96-1.58ZM391.78,50.71c-1.13-.03-2.27.03-3.4,0l.25.28c-2.41.34-4.88.01-7.3,0,.09.32.3.2.51.22,2.35.2,4.71,0,7.04-.08,1.14-.04,2.55.24,3.49-.28v.43s10.45,0,10.45,0c.17-.32-.96-.07-1.1-.14l.17-.28h-2.21s.34.28.34.28c-.57.2-.67-.22-.72-.24-.34-.13-6.4-.16-7.51-.19ZM345.65,50.43l.34.43-.51.14c1.84-.17,4.07.2,5.87.01.34-.04.21-.45.75-.3l-.34.28h2.77s.28-.43.28-.43h-1.02s.17.28.17.28h-.6s.09-.28.09-.28l-7.82-.14ZM429.4,81.22c.6-.43,1.82-.63,1.87-1.49-1.37.34-2.11,1.53-3.56,1.72l.77.29-.57.26-.11-.26h-.33s-1.96,1.72-1.96,1.72c1.67.03,2.76-1.41,3.9-2.22ZM454.97,42.14c-.65.03-1.74-.21-2.12.29.7.32,1.49.37,2.28.28.48-.06.71-.36,1.35-.28.42.06.91.51,1.46.43l.08.57.33-.28c.34.05.44.38.48.4.14.05.35-.12.48-.05.17.08.03.45.41.36.06-.88-1-.74-1.61-1.08-.24-.14-.28-.38-.39-.45-.76-.45-1.98-.22-2.76-.19ZM317.11,49.86v.14h20.05v-.14h-20.05ZM484.27,64.37c.02.27.29.47.29.56,0,.15-.55.92-.28,1.36l-.34-.15c-.13.15.22.96.68.86l-.17-1.86c.3,0,.21.39.42.57.18.15.51.13.67.29.23.22.21.81.36,1.13.36.77.3.49.51,1.37.12.54.61.74.7,1.02.18.51-.83,1.38.9,1.62l-.03-.4-.64-.31h1.19s-.51-1.43-.51-1.43l-.25.71c-.87-.66-.91-1.52-1.27-2.36-.3-.69-.38-1.03-.6-1.63-.06-.18-.47-.42-.44-.72l-.33.14c.38-.88-.32-1.66-.17-2.43-.94-.17-.72,1.07-.69,1.65ZM479.18,77.87l.15.26-.48.31,1.53-.14c-.27.87-2.08.33-2.89.14l.85-.28h-.9s-.63.43-.63.43c1.4.04,2.6.77,4.08.57l-.51-.57,1.87.29-.19-.69c-1.08.11-1.87-.22-2.86-.31ZM443.62,49.71c-.78.58-2.64.55-3.72.47l-1.32.25c1.19-.06,2.48.08,3.66,0,.88-.06,1.9-.4,2.73-.42s1.89.16,2.87.13c.21,0,.63.11.59-.14l-4.81-.29ZM355.45,50.56l-.28.43.34-.28h1.44s-.42.28-.42.28h4.76s-.17-.28-.17-.28c.71-.12.92.54,1.7.43-.41-.44-1.3-.68-1.92-.57-.14.03-.08.42-.54.29l-.25-.29c.08.44-.44.27-.85.28l.17-.28h-3.96ZM475.79,22.21c.15-.79.08-1.51-.01-2.44-.02-.24-.09-.59-.25-.79-.3,0-.23,4.72-.18,5.01.03.17-.1.36.27.42-.03-.73.05-1.48.18-2.2ZM475.31,62.12l-.89-.12c-.07.63.35,1.58-.68,1.72.82.88,1.01-1.07,1.36-1.23l1.53.08c-.13-.41-.38-.53-.17-1l-1.15.55ZM490.05,34.92l1.19.07-.34.43.77-.14.17.43,1.08-.17.02-.4.85.14-.58-.37c-.97-.38-2.12.02-3.16,0ZM446.08-7.7c-.17-.33-.35-.85-.71-1.05.37,1.44,1.03,3.18,2.21,4.29-.43-1.08-.96-2.19-1.5-3.24ZM412.59,51.43c.04-.25-.38-.14-.59-.14-.56-.02-1.13.01-1.7,0,.09-.75-.26-.01-.5.01h-1.97s-.08-.3-.08-.3c-.15.38-.32.31-.77.29l.17-.28c-.1-.06-2.07-.01-2.38.21.4-.02.92.19,1.27.21,2.1.15,4.42-.11,6.54,0ZM355,50v.14h11.04v-.14h-11.04ZM472.84,55.02c-.42.03-1.21.55-1.14.98h2.38c.07-.24-.6-.06-.34-.43.01-.02.47.21.51-.14-.59.25-1.14-.43-1.41-.41ZM509.93,73.15c-1.07.03-2.72,1.11-1.27,1.71.24-.46.75-.79,1.03-1.2.11-.16.33-.26.25-.51ZM507.89,68.58l.17.28c-.39-.31-1.09.25-.78.58.45.48,1.57,0,2.14-.08.39-.41-.4-.27-.61-.35-.3-.11-.42-.39-.45-.4-.16-.07-.31-.04-.47-.04ZM468.02,41.15l-1.07.34c.28.36,1.09.34,1.36.57.28.25.2.73.3,1.05.08.25-.08.38.38.31l-.34-1,.51-.07-.34-.79-.31.12-.48-.54ZM482.05,42.43l-.58.28.94.57-1.19.15v.57s1.37-.06,1.37-.06c0-.44.47-.48.5-.51.19-.25-.28-.28-.59-.5-.19-.14-.39-.27-.44-.49ZM468.48,43.64c-.02.82.57.79.67,1,.22.46-.48.21-.33.64l1.19.29.15-.55c-.68-.26-.89-.97-1.34-1.45l-.34.07ZM458.29,37.14c.37.97.36,1.76.16,2.76l1.02.39-.17-.57-.68.14v-.43s.34.14.34.14c-.12-.78.32-2.04-.68-2.43ZM483.06,45.96l-.49-.05-.18.35-.49-.13c-.16.13,1.02,1.77.68.43.41.27.52.3,1.02.14l-.17-1c-.34-.03-.35-.03-.36.25ZM345.82,50v.14h8.83v-.14h-8.83ZM469.84,81.37c.24.03.51.45.55.46.4.17,1.97-.73,2.68-.54v-.43c-1.14.3-2,.5-3.23.5ZM480.37,31.7s.87.42.94.43c.67.1,1.05-.15,1.1-.71l-1.36.28.51-.71c-.19.03-1.43.46-1.19.71ZM456.59,9.12c.27.93.66,2.22,1.53,2.86-.29-.96-.63-2.18-1.53-2.86ZM448.01-3.88c-.37-.03-.15.36-.09.5.29.73.75,1.35,1.54,1.78.06-.37-1.29-2.27-1.44-2.28ZM491.93,56.64c-.36-.3-.32.18-.45.21-.59.14-1.45-.38-2.1.36.23.5,1.49-.18,1.75-.18,1.21.01,1.26,1.1,1.89,1.41.29.14.74.12.76.14.12.09-.18.6.18.57.14-.39.17-.86-.25-1.14-.35-.23-.68-.07-.9-.17-.05-.02-.52-.6-.65-.74-.11-.12-.11-.35-.23-.45ZM465.04,79.2c-.17.02-.68.04-.64.24h.85s.02.55.02.55l1,.16-.85-.57h1.53s0-.57,0-.57c-.63.18-1.27.11-1.91.18ZM415.31,50.43v.14h7.64v-.14h-7.64ZM383.2,50.14v.14h7.64v-.14h-7.64ZM501.61,34.28c-.1.59.63.86.17,1.43h.85s-.17-.43-.17-.43l.51.14c.15-.36-.22-.25-.28-.33-.28-.36-.38-.92-1.08-.81ZM378.27,51.14c.04-.25-.38-.14-.59-.14-1.86-.06-3.92-.07-5.78,0-.21,0-.63-.11-.59.14h6.97ZM482.75,31.13l.51.5-1.02.64c.36,0,.76-.16,1.03-.35.16-.1,1.01-.93.83-1.08l-1.36.29ZM485.3,69.15c.51,1,.66,2.08.34,3.14.47.06.32-.07.34-.35.04-.65.15-1.32,0-1.93l.51.14-1.19-1ZM474.25,56.07l1.02.36-.34.43,1.19.08.34-.51c-.72.05-1.55-.03-1.7-.72-.65-.07.11.25-.51.36ZM460.83,41.14l-.34,1.86,1.7-.43c-.02-.3-.63.02-.51-.43l-.18.27-.64-.15-.03-1.12ZM370.8,51.14c-.07-.22-.93-.2-1.17-.2-1.2-.02-2.58-.03-3.78,0-.2,0-.99-.02-1,.2h5.95ZM468.39,39.85l-.08.43-.51-.14c-.18.85,1.1.6,1.19,1.14l.17-.57.34-.07c-.55-.54-.49.04-.53.05-.7.19-.17-.65-.58-.83ZM468.9,77.87c-.36.48-.47.95-1.28,1l.17.43.93-.71.76.71c.18-.48-.37-.76-.46-.9-.12-.2.04-.44-.14-.53ZM474.77,59.86v.76s.68.67.68.67c-.24-.58.59-.38.67-.65l-.16-.63-.41.4c-.14-.09-.51-.07-.58-.14-.12-.12.12-.45-.2-.4ZM397.64,50.28v.14h6.12v-.14h-6.12ZM441.64-13.46v1.29c.68-.18.77-.82,1.36-1.14-.59.01-.89.26-1.36-.14ZM484.7,36.28c.68-.11-.29-.05-.08-.51.16-.36.65-.05.68-.07-.52-1.19-2.46.16-.6.58ZM470.52,71.44l-.68,2.14.17-.28.68-.15c-.48-.54.63-1.35-.17-1.71ZM485.16,44.51l.13.34-.68-.14c-.14.46.44.26.64.47.12.12.04.42.3.53.32.01.21-1.35.08-1.43-.13-.08-.44.07-.47.23ZM432.29,50.43v.14h5.61v-.14h-5.61ZM509.17,39.28c-.21.13-.39.42-.61.5-.35.14-1.44-.21-1.35.35.48.07,1.13-.39,1.27.14l1.1-.64c.05-.11-.17-.04-.27-.13s-.02-.27-.15-.23ZM483.53,37.57l-.19-.29-1.78.28.55.26.81-.26-.17.34.34.37.44-.7ZM482.91,52.2l-.16.65c.49-.2.71.16,1.19.14.01-.21-.04-.53-.21-.68-.16-.13-.61-.24-.81-.12ZM481.22,53.86c.27,1.14-1.32.63-.85,2,.31.04.09-.25.21-.39.08-.09.32-.1.39-.19.12-.15-.09-.34-.05-.4.06-.1,1.18-.63.3-1.02ZM419.55,51.43v.14h5.1v-.14h-5.1ZM505.85,66.58v.43s.51.07.51.07l-.67.28c.2.41.05.68.67.79.02-.34-.03-.87.51-.86v-.14s-.69-.29-.78-.34c-.13-.08.02-.29-.23-.23ZM503.81,45.28l.14.27-.31.16c.8-.07.83.41,1.36.72l-.03-.83-1.16-.32ZM484.62,67.86c-.19-.03-.36-.55-.68-.28s.32.46.34.5c.18.41-.55-.16-.34.36.46.07.57-.08.7-.41l.31.12-.17-1c-.66-.1-.1.42-.17.71ZM505.81,51.14c-.13.07-.51.43-.64.57l1.36.14-.17-.86c-.21-.02-.38.05-.55.14ZM490.05,49c.81-.2,2.13.13,2.72-.43-.79.05-2.14-.06-2.72.43ZM475.01,27.7l-.08,1.43c.59-.09.06-.77.17-.86h.51c.1-.36-.09-.96-.6-.58ZM479.52,33.56c-.54.16-.95.13-1.19.65l1.36.07-.17-.71ZM472.39,66.01l-.51,1.71c.57.14.35-.54.55-.69l.47-.02v-.28s-.3-.03-.3-.03c-.08-.07.22-.68-.2-.68Z"/> 
</svg>